<?xml version="1.0" encoding="UTF-8"?>
<svg version="1.1" xmlns="http://www.w3.org/2000/svg" width="64" height="64">
<path d="M0 0 C7.22538503 4.30603754 11.61183794 10.13263188 14.4375 18 C15.58377924 27.37083278 15.35041227 36.25894094 9.4375 44 C4.17173342 49.79454649 -1.46288906 53.49851854 -9.39453125 54.46875 C-18.96468152 54.54388366 -26.27935606 53.80103194 -33.6171875 47.1328125 C-40.09535088 40.22456359 -42.12992353 33.50211038 -42.04296875 24.06860352 C-41.74395838 15.54582427 -38.83865527 9.83070397 -32.6875 4.0625 C-23.90268227 -3.41745987 -10.46364874 -4.75036814 0 0 Z " fill="#E6E6E6" transform="translate(45.5625,6)"/>
<path d="M0 0 C7.22538503 4.30603754 11.61183794 10.13263188 14.4375 18 C15.58377924 27.37083278 15.35041227 36.25894094 9.4375 44 C4.17173342 49.79454649 -1.46288906 53.49851854 -9.39453125 54.46875 C-18.96468152 54.54388366 -26.27935606 53.80103194 -33.6171875 47.1328125 C-40.09535088 40.22456359 -42.12992353 33.50211038 -42.04296875 24.06860352 C-41.74395838 15.54582427 -38.83865527 9.83070397 -32.6875 4.0625 C-23.90268227 -3.41745987 -10.46364874 -4.75036814 0 0 Z M-33.0859375 11.0234375 C-37.60675107 17.07510858 -38.58779904 24.64407552 -37.5625 32 C-35.61884515 39.06194595 -30.45649181 43.92778748 -24.5625 48 C-18.79701555 50.61772465 -12.02961623 51.20595347 -6.046875 49.125 C1.30212372 45.78054549 5.43100661 41.61168811 9.3125 34.625 C11.54939925 27.41721354 10.93219856 21.34511309 7.90234375 14.43359375 C4.70198464 9.11673049 0.02008299 5.3474346 -5.4375 2.5 C-16.91193796 0.66408993 -25.04062239 2.39033681 -33.0859375 11.0234375 Z " fill="#FEFEFE" transform="translate(45.5625,6)"/>
<path d="M0 0 C1.65 0.33 3.3 0.66 5 1 C5 8.92 5 16.84 5 25 C3.35 25.33 1.7 25.66 0 26 C-1.71567792 24.28432208 -1.13015825 22.02627265 -1.1328125 19.6875 C-1.13410156 18.61242187 -1.13539062 17.53734375 -1.13671875 16.4296875 C-1.13091797 14.73199219 -1.13091797 14.73199219 -1.125 13 C-1.12886719 11.86820313 -1.13273437 10.73640625 -1.13671875 9.5703125 C-1.13542969 8.49523437 -1.13414063 7.42015625 -1.1328125 6.3125 C-1.13168457 5.31863281 -1.13055664 4.32476562 -1.12939453 3.30078125 C-1 1 -1 1 0 0 Z " fill="#FEFEFE" transform="translate(30,24)"/>
<path d="M0 0 C1.65 0.33 3.3 0.66 5 1 C4.67 2.65 4.34 4.3 4 6 C2.35 5.67 0.7 5.34 -1 5 C-0.67 3.35 -0.34 1.7 0 0 Z " fill="#FBFBFB" transform="translate(30,14)"/>
</svg>
