<?xml version="1.0" encoding="UTF-8"?>
<svg version="1.1" xmlns="http://www.w3.org/2000/svg" width="64" height="64">
<path d="M0 0 C1.54300781 -0.03867188 1.54300781 -0.03867188 3.1171875 -0.078125 C6.52855462 0.29402414 8.33717811 1.30194232 11.125 3.25 C11.723125 3.641875 12.32125 4.03375 12.9375 4.4375 C14.94517912 7.50185235 14.73666516 10.77030488 14.125 14.25 C11.7907162 18.22692795 9.56333789 20.02945708 5.125 21.25 C3.805 21.25 2.485 21.25 1.125 21.25 C1.44726562 21.78109375 1.76953125 22.3121875 2.1015625 22.859375 C4.39348047 28.21301546 3.99065992 35.16116802 2.4375 40.703125 C-0.1149974 46.27607765 -3.87746691 49.54869743 -9.1875 52.5625 C-13.08560288 53.55968911 -16.87422098 53.40689329 -20.875 53.25 C-20.936875 53.971875 -20.99875 54.69375 -21.0625 55.4375 C-22.13492966 59.1497565 -23.97257913 60.76221068 -26.875 63.25 C-30.03509533 64.30336511 -32.4303136 64.45032888 -35.75 64.5 C-36.77867188 64.52578125 -37.80734375 64.5515625 -38.8671875 64.578125 C-43.03472159 64.12348492 -45.43442713 62.39612611 -48.65234375 59.8359375 C-50.69837146 57.18198462 -50.46783948 54.72174718 -50.3515625 51.4765625 C-49.875 49.25 -49.875 49.25 -47.3125 46.25 C-43.66946749 44.13041745 -41.05252761 43.50065166 -36.875 43.25 C-37.19597656 42.72921875 -37.51695313 42.2084375 -37.84765625 41.671875 C-40.23059768 36.05429445 -40.03260511 28.37840389 -37.9296875 22.6953125 C-34.79339447 17.46815744 -30.5283243 13.60470599 -24.875 11.25 C-22.296875 11.0546875 -22.296875 11.0546875 -19.625 11.125 C-18.73296875 11.14304687 -17.8409375 11.16109375 -16.921875 11.1796875 C-15.90867187 11.21449219 -15.90867187 11.21449219 -14.875 11.25 C-14.813125 10.528125 -14.75125 9.80625 -14.6875 9.0625 C-13.61507034 5.3502435 -11.77742087 3.73778932 -8.875 1.25 C-5.71490467 0.19663489 -3.3196864 0.04967112 0 0 Z " fill="#F8F7F8" transform="translate(49.875,-0.25)"/>
<path d="M0 0 C1.54300781 -0.03867188 1.54300781 -0.03867188 3.1171875 -0.078125 C6.52855462 0.29402414 8.33717811 1.30194232 11.125 3.25 C11.723125 3.641875 12.32125 4.03375 12.9375 4.4375 C14.94517912 7.50185235 14.73666516 10.77030488 14.125 14.25 C11.7907162 18.22692795 9.56333789 20.02945708 5.125 21.25 C3.805 21.25 2.485 21.25 1.125 21.25 C1.44726562 21.78109375 1.76953125 22.3121875 2.1015625 22.859375 C4.39348047 28.21301546 3.99065992 35.16116802 2.4375 40.703125 C-0.1149974 46.27607765 -3.87746691 49.54869743 -9.1875 52.5625 C-13.08560288 53.55968911 -16.87422098 53.40689329 -20.875 53.25 C-20.936875 53.971875 -20.99875 54.69375 -21.0625 55.4375 C-22.18049966 59.30749882 -23.65089007 60.84906707 -26.875 63.25 C-29.68202863 63.66585609 -32.01489016 63.49238219 -34.875 63.25 C-34.276875 62.816875 -33.67875 62.38375 -33.0625 61.9375 C-32.340625 61.380625 -31.61875 60.82375 -30.875 60.25 C-30.2975 59.8375 -29.72 59.425 -29.125 59 C-27.10323609 56.16953053 -27.56985253 53.60662214 -27.875 50.25 C-28.535 49.59 -29.195 48.93 -29.875 48.25 C-29.5 45.125 -29.5 45.125 -28.875 42.25 C-27.225 42.25 -25.575 42.25 -23.875 42.25 C-23.875 43.24 -23.875 44.23 -23.875 45.25 C-24.535 45.25 -25.195 45.25 -25.875 45.25 C-24.50392786 47.98907185 -24.50392786 47.98907185 -21.875 50.25 C-17.20067687 50.8866149 -13.7966621 49.94636692 -10.0625 47.125 C-5.35090153 40.93261344 -3.41637253 37.37284415 -3.5390625 29.58203125 C-3.90476172 27.04339827 -4.44541032 25.38008863 -5.875 23.25 C-8.93408413 22.43415432 -8.93408413 22.43415432 -11.875 22.25 C-11.875 21.26 -11.875 20.27 -11.875 19.25 C-11.215 19.25 -10.555 19.25 -9.875 19.25 C-9.875 18.59 -9.875 17.93 -9.875 17.25 C-10.41125 16.981875 -10.9475 16.71375 -11.5 16.4375 C-14.29166667 15.04166667 -17.08333333 13.64583333 -19.875 12.25 C-19.875 11.92 -19.875 11.59 -19.875 11.25 C-18.225 11.25 -16.575 11.25 -14.875 11.25 C-14.813125 10.528125 -14.75125 9.80625 -14.6875 9.0625 C-13.61507034 5.3502435 -11.77742087 3.73778932 -8.875 1.25 C-5.71490467 0.19663489 -3.3196864 0.04967112 0 0 Z " fill="#AEAEAE" transform="translate(49.875,-0.25)"/>
<path d="M0 0 C0.33 0.66 0.66 1.32 1 2 C0.40832031 2.17015625 -0.18335937 2.3403125 -0.79296875 2.515625 C-6.87118339 4.37974303 -11.03485332 6.22168918 -14.8125 11.5625 C-17.08596976 18.14359666 -16.87729338 24.66078391 -14 31 C-12.35 31 -10.7 31 -9 31 C-9.04125 31.94875 -9.0825 32.8975 -9.125 33.875 C-9.34973818 37.10244856 -9.34973818 37.10244856 -7 39 C-6.625 42.375 -6.625 42.375 -7 46 C-8.9375 48.375 -8.9375 48.375 -11 50 C-11.33 50.33 -11.66 50.66 -12 51 C-11.34 51 -10.68 51 -10 51 C-10 51.66 -10 52.32 -10 53 C-11.89510699 53.08160748 -13.79124504 53.13946459 -15.6875 53.1875 C-17.27111328 53.23970703 -17.27111328 53.23970703 -18.88671875 53.29296875 C-23.14401943 52.89234447 -25.50020283 51.19324522 -28.77734375 48.5859375 C-30.82337146 45.93198462 -30.59283948 43.47174718 -30.4765625 40.2265625 C-30 38 -30 38 -27.4375 35 C-23.79446749 32.88041745 -21.17752761 32.25065166 -17 32 C-17.32097656 31.47921875 -17.64195313 30.9584375 -17.97265625 30.421875 C-20.35559768 24.80429445 -20.15760511 17.12840389 -18.0546875 11.4453125 C-13.98776939 4.66711565 -8.15379497 -0.45298861 0 0 Z " fill="#F4F4F4" transform="translate(30,11)"/>
<path d="M0 0 C2.85142288 1.34184606 3.87845438 2.49766414 6 5 C6.6875 8 6.6875 8 6 11 C2.57442479 16.07930118 -1.82375811 17.14590965 -7.4765625 18.6171875 C-10 19 -10 19 -13 18 C-13 16.68 -13 15.36 -13 14 C-13.515625 13.360625 -14.03125 12.72125 -14.5625 12.0625 C-16 10 -16 10 -15.9375 7.5 C-13.16300405 0.10134414 -7.10648308 -1.04752179 0 0 Z " fill="#F2F2F2" transform="translate(53,2)"/>
<path d="M0 0 C0.33 0.66 0.66 1.32 1 2 C0.40832031 2.17015625 -0.18335937 2.3403125 -0.79296875 2.515625 C-6.87118339 4.37974303 -11.03485332 6.22168918 -14.8125 11.5625 C-17.08596976 18.14359666 -16.87729338 24.66078391 -14 31 C-12.35 31 -10.7 31 -9 31 C-9.33 32.65 -9.66 34.3 -10 36 C-10.33 35.34 -10.66 34.68 -11 34 C-19.79062545 34.32426491 -19.79062545 34.32426491 -27 39 C-27.91666667 42.5 -27.91666667 42.5 -27 46 C-24.69381471 49.12982289 -22.80119881 49.87705922 -18.99609375 50.4609375 C-15.99483266 50.72314921 -13.01080175 50.90396167 -10 51 C-10 51.66 -10 52.32 -10 53 C-11.89510699 53.08160748 -13.79124504 53.13946459 -15.6875 53.1875 C-17.27111328 53.23970703 -17.27111328 53.23970703 -18.88671875 53.29296875 C-23.14401943 52.89234447 -25.50020283 51.19324522 -28.77734375 48.5859375 C-30.82337146 45.93198462 -30.59283948 43.47174718 -30.4765625 40.2265625 C-30 38 -30 38 -27.4375 35 C-23.79446749 32.88041745 -21.17752761 32.25065166 -17 32 C-17.32097656 31.47921875 -17.64195313 30.9584375 -17.97265625 30.421875 C-20.35559768 24.80429445 -20.15760511 17.12840389 -18.0546875 11.4453125 C-13.98776939 4.66711565 -8.15379497 -0.45298861 0 0 Z " fill="#B9B9B9" transform="translate(30,11)"/>
<path d="M0 0 C1.875 0.25 1.875 0.25 4 1 C6.97955195 5.61620725 6.59231617 10.71302973 6 16 C4.03341829 22.40999336 0.51974824 25.82603785 -5.125 29.3125 C-7 30 -7 30 -10 29 C-9.113125 28.525625 -8.22625 28.05125 -7.3125 27.5625 C-3.04053503 24.67055222 -0.7383486 20.8029373 1 16 C1.71423069 10.60268854 1.11852131 5.3129762 0 0 Z " fill="#0B0B0B" transform="translate(45,21)"/>
<path d="M0 0 C1.65 0 3.3 0 5 0 C5 0.99 5 1.98 5 3 C4.34 3 3.68 3 3 3 C5.51070754 6.66887552 5.51070754 6.66887552 9.25 8.8125 C9.8275 8.874375 10.405 8.93625 11 9 C11 9.66 11 10.32 11 11 C10.01 11 9.02 11 8 11 C7.938125 11.721875 7.87625 12.44375 7.8125 13.1875 C6.69450034 17.05749882 5.22410993 18.59906707 2 21 C-0.80702863 21.41585609 -3.13989016 21.24238219 -6 21 C-5.401875 20.566875 -4.80375 20.13375 -4.1875 19.6875 C-3.465625 19.130625 -2.74375 18.57375 -2 18 C-1.4225 17.5875 -0.845 17.175 -0.25 16.75 C1.77176391 13.91953053 1.30514747 11.35662214 1 8 C0.34 7.34 -0.32 6.68 -1 6 C-0.625 2.875 -0.625 2.875 0 0 Z " fill="#A5A5A5" transform="translate(21,42)"/>
<path d="M0 0 C5.61 0 11.22 0 17 0 C16.67 1.65 16.34 3.3 16 5 C10.72 5 5.44 5 0 5 C0 3.35 0 1.7 0 0 Z " fill="#D4D4D4" transform="translate(6,50)"/>
<path d="M0 0 C0.66 0 1.32 0 2 0 C2.54989234 6.59870812 1.88792769 11.52101267 -2 17 C-5.10188813 20.34833952 -8.57298306 22.78257034 -13 24 C-16.3125 24.125 -16.3125 24.125 -19 24 C-19 23.34 -19 22.68 -19 22 C-17.80375 21.7525 -16.6075 21.505 -15.375 21.25 C-10.60852295 20.02048472 -6.69419762 18.43574738 -3.77734375 14.2421875 C-1.20967673 9.54860262 -0.37906529 5.30691402 0 0 Z " fill="#A4A4A4" transform="translate(51,29)"/>
<path d="M0 0 C0.87527344 -0.04898438 1.75054687 -0.09796875 2.65234375 -0.1484375 C3.84537109 0.11066406 3.84537109 0.11066406 5.0625 0.375 C6.0525 2.025 7.0425 3.675 8.0625 5.375 C-0.3525 5.87 -0.3525 5.87 -8.9375 6.375 C-6.52998092 0.35620231 -5.95299217 0.22728017 0 0 Z " fill="#FBFBFB" transform="translate(13.9375,44.625)"/>
<path d="M0 0 C0.66 0.33 1.32 0.66 2 1 C2 2.32 2 3.64 2 5 C2.7734375 5.9590625 2.7734375 5.9590625 3.5625 6.9375 C5 9 5 9 4.9375 11.5 C3.82992505 14.45353321 2.35871993 15.94563102 0 18 C-0.66 17.67 -1.32 17.34 -2 17 C-1.01 15.515 -1.01 15.515 0 14 C0.33338596 10.45812169 0.33338596 10.45812169 0 7 C-0.66 6.34 -1.32 5.68 -2 5 C-1.46428571 1.46428571 -1.46428571 1.46428571 0 0 Z " fill="#171717" transform="translate(22,43)"/>
<path d="M0 0 C6.13680387 2.15617433 6.13680387 2.15617433 8 5 C8.5 8.4375 8.5 8.4375 8 12 C5.5 14.4375 5.5 14.4375 3 16 C2.34 15.67 1.68 15.34 1 15 C1.495 14.46375 1.99 13.9275 2.5 13.375 C4.45380713 10.28147204 4.51518691 8.60630834 4 5 C2.12230858 2.15079947 2.12230858 2.15079947 0 0 Z " fill="#161616" transform="translate(54,2)"/>
<path d="M0 0 C5.28 0 10.56 0 16 0 C16 0.33 16 0.66 16 1 C14.02 1 12.04 1 10 1 C10 1.99 10 2.98 10 4 C6.7 4 3.4 4 0 4 C0 2.68 0 1.36 0 0 Z " fill="#CDCDCD" transform="translate(42,10)"/>
<path d="M0 0 C-2.28805777 2.28805777 -3.33275656 2.45582599 -6.4375 3.0625 C-9.06137121 3.58554517 -11.45279021 4.15093007 -14 5 C-14.33 5.99 -14.66 6.98 -15 8 C-15.66 8 -16.32 8 -17 8 C-16.08516297 4.615103 -15.33774897 3.23889561 -12.4375 1.1875 C-8.15755957 -0.29102488 -4.47765137 -0.26865908 0 0 Z " fill="#B7B7B7" transform="translate(53,0)"/>
<path d="M0 0 C3.93208313 0.08737963 5.76408602 0.82431938 8.9375 3.1875 C11 6 11 6 10.8125 9.3125 C10.544375 10.199375 10.27625 11.08625 10 12 C9.67 12 9.34 12 9 12 C8.7525 11.071875 8.505 10.14375 8.25 9.1875 C6.9039116 5.75497458 6.18414125 4.72853382 3 3 C0.35065178 2.28566879 0.35065178 2.28566879 -2 2 C-1.34 1.34 -0.68 0.68 0 0 Z " fill="#A0A0A0" transform="translate(53,0)"/>
<path d="M0 0 C0.66 0.33 1.32 0.66 2 1 C0.19587357 4.26460973 -0.83394693 5.88929795 -4 8 C-6.04296875 8.1953125 -6.04296875 8.1953125 -8.1875 8.125 C-10.0746875 8.063125 -10.0746875 8.063125 -12 8 C-9.7651599 6.09624732 -8.36791786 5.06281525 -5.4375 4.5625 C-2.82931622 4.21028015 -2.82931622 4.21028015 -1.1875 1.9375 C-0.795625 1.298125 -0.40375 0.65875 0 0 Z " fill="#9F9F9F" transform="translate(27,55)"/>
<path d="M0 0 C0.66 0 1.32 0 2 0 C2.02712066 1.43739513 2.04645067 2.87493863 2.0625 4.3125 C2.07410156 5.11300781 2.08570313 5.91351563 2.09765625 6.73828125 C2 9 2 9 1 12 C0.01 12.33 -0.98 12.66 -2 13 C-1.34 8.71 -0.68 4.42 0 0 Z " fill="#9D9D9D" transform="translate(51,29)"/>
<path d="M0 0 C0.66 0 1.32 0 2 0 C2.33 2.31 2.66 4.62 3 7 C0.64828869 6.40138258 -1.6859378 5.73075648 -4 5 C-4.33 4.34 -4.66 3.68 -5 3 C-3.35 3 -1.7 3 0 3 C0 2.01 0 1.02 0 0 Z " fill="#A0A0A0" transform="translate(35,8)"/>
<path d="M0 0 C0.33 0.66 0.66 1.32 1 2 C-3.95 3.485 -3.95 3.485 -9 5 C-6.40100021 -0.19799959 -5.44050551 -0.1431712 0 0 Z " fill="#BBBBBB" transform="translate(30,11)"/>
<path d="M0 0 C0.33 0 0.66 0 1 0 C1 1.65 1 3.3 1 5 C1.66 5.33 2.32 5.66 3 6 C1.68 7.32 0.36 8.64 -1 10 C-1.66 9.67 -2.32 9.34 -3 9 C-2.34 8.01 -1.68 7.02 -1 6 C-0.60986284 4.0103005 -0.26797351 2.00980131 0 0 Z " fill="#343434" transform="translate(23,51)"/>
<path d="M0 0 C0.33 0.66 0.66 1.32 1 2 C-0.65 3.98 -2.3 5.96 -4 8 C-4.66 7.67 -5.32 7.34 -6 7 C-2.25 1.125 -2.25 1.125 0 0 Z " fill="#ACACAC" transform="translate(50,41)"/>
<path d="M0 0 C1.98 0.66 3.96 1.32 6 2 C6 2.66 6 3.32 6 4 C5.01 4 4.02 4 3 4 C3 4.66 3 5.32 3 6 C2.34 6 1.68 6 1 6 C0.67 4.02 0.34 2.04 0 0 Z " fill="#B2B2B2" transform="translate(26,49)"/>
</svg>
