<?xml version="1.0" encoding="UTF-8"?>
<svg version="1.1" xmlns="http://www.w3.org/2000/svg" width="512" height="512">
<path d="M0 0 C0.87785156 0.66515625 1.75570313 1.3303125 2.66015625 2.015625 C9.44298598 7.30429731 15.76473119 13.08570785 22 19 C22.50321777 19.47453613 23.00643555 19.94907227 23.52490234 20.43798828 C62.56698633 57.49594578 87.68387048 113.40480053 89.13183594 167.20263672 C89.67961783 194.03569403 89.67961783 194.03569403 88 207 C88.92897095 207.43868408 88.92897095 207.43868408 89.87670898 207.88623047 C107.5948207 217.18024285 119.9728407 247.45937427 125.74560547 265.31835938 C128.05328939 272.794538 129.81543755 280.25769986 131 288 C131.13019531 288.81597656 131.26039063 289.63195312 131.39453125 290.47265625 C135.42618135 321.81201633 128.30054471 358.01999985 109.5625 383.80078125 C109.02753906 384.48954346 108.49257813 385.17830566 107.94140625 385.88793945 C106.73897857 387.99668729 106.73897857 387.99668729 107.60620117 390.35302734 C109.24467385 393.46466175 110.94543713 396.52628509 112.73828125 399.55078125 C113.10092575 400.16841843 113.46357025 400.7860556 113.83720398 401.42240906 C114.60298097 402.72518843 115.37041374 404.02699577 116.1394043 405.32788086 C117.30156211 407.2939955 118.45885444 409.26290454 119.61523438 411.23242188 C124.18404305 418.99893816 124.18404305 418.99893816 128.9765625 426.62890625 C131.5129442 430.85457691 132.47074633 434.10242758 132 439 C130.00204445 443.06990944 128.26880912 445.45671866 124 447 C120.86247253 447.04893494 120.86247253 447.04893494 117.19995117 446.75366211 C116.5399496 446.70125083 115.87994802 446.64883955 115.1999464 446.59484005 C108.03054311 445.98758364 100.9197169 444.97169927 93.80078125 443.94140625 C90.93370992 443.5470355 88.06547167 443.16141219 85.19726562 442.77539062 C80.7555537 442.17697965 76.31647599 441.56773359 71.88305664 440.91040039 C55.31213471 438.46660056 40.72485488 436.49217123 24.82861328 443.27330017 C20.72634237 444.90356262 16.35578628 445.45552671 12 446 C11.1853125 446.10957031 10.370625 446.21914063 9.53125 446.33203125 C-26.42882699 450.39378693 -63.37355044 441.11574866 -91.9609375 418.67578125 C-94.66762454 416.48067983 -97.33812152 414.2490508 -100 412 C-101.18715315 411.04123703 -102.37458086 410.08281374 -103.5625 409.125 C-106 407 -106 407 -108 404 C-111.06132755 403.76915967 -113.9199057 403.72510219 -116.9765625 403.8125 C-118.85180164 403.83873874 -120.72704605 403.86460306 -122.60229492 403.89013672 C-123.58620209 403.90880798 -124.57010925 403.92747925 -125.58383179 403.94671631 C-153.04304074 404.42782354 -181.87066898 403.54858237 -207.50927734 392.39770508 C-214.56655755 389.64705643 -219.52740235 388.66681152 -226.99194336 389.65380859 C-227.8521984 389.75379339 -228.71245344 389.85377819 -229.59877682 389.95679283 C-232.40155281 390.28739738 -235.20050232 390.64278011 -238 391 C-239.90564752 391.23208224 -241.81142132 391.46312981 -243.71731567 391.69317627 C-248.82692531 392.31634012 -253.93314624 392.96397849 -259.03875923 393.61900711 C-262.40768653 394.05076076 -265.77711798 394.47836914 -269.14671326 394.90487671 C-278.71031199 396.11580187 -288.27329068 397.33150655 -297.83520508 398.55566406 C-303.72546815 399.30946731 -309.61654892 400.05657486 -315.50819206 400.79951096 C-317.73508614 401.08164658 -319.96166398 401.36629093 -322.18789864 401.65358353 C-325.29841233 402.05481268 -328.40990021 402.44749516 -331.52172852 402.83837891 C-332.87399033 403.01600517 -332.87399033 403.01600517 -334.25357056 403.19721985 C-351.87941532 405.37655647 -351.87941532 405.37655647 -356.625 402.0625 C-359.82670125 397.93399049 -360.6104947 395.16766091 -360 390 C-358.97290039 387.64282227 -358.97290039 387.64282227 -357.53515625 385.12890625 C-356.71217041 383.68064453 -356.71217041 383.68064453 -355.87255859 382.203125 C-355.25461426 381.14609375 -354.63666992 380.0890625 -354 379 C-353.3395166 377.865625 -352.6790332 376.73125 -351.99853516 375.5625 C-349.74793926 371.71736963 -347.46852691 367.88962857 -345.1875 364.0625 C-344.35614123 362.66369122 -343.52484338 361.26484624 -342.69360352 359.8659668 C-338.51422992 352.84155532 -334.30518277 345.83623527 -330.046875 338.859375 C-329.65490433 338.21669174 -329.26293365 337.57400848 -328.85908508 336.91184998 C-326.99752393 333.86144797 -325.13107576 330.81420644 -323.2565918 327.77172852 C-322.59312744 326.68819092 -321.92966309 325.60465332 -321.24609375 324.48828125 C-320.66529053 323.54509033 -320.0844873 322.60189941 -319.48608398 321.63012695 C-318.0546048 319.09664162 -316.82382077 316.79346184 -316 314 C-317.30313227 311.48061095 -318.5703489 309.49587909 -320.25 307.25 C-321.19624612 305.90352093 -322.1388389 304.55446849 -323.078125 303.203125 C-323.80999023 302.15995117 -323.80999023 302.15995117 -324.55664062 301.09570312 C-356.88203814 254.16045071 -366.14530452 193.52346891 -356.49609375 138.10595703 C-350.60926832 106.96574068 -338.45526759 76.82433203 -320 51 C-319.25363281 49.94296875 -318.50726563 48.8859375 -317.73828125 47.796875 C-305.75837004 31.36482444 -292.02405917 16.52992405 -276 4 C-275.05125 3.22269531 -274.1025 2.44539063 -273.125 1.64453125 C-196.78419916 -59.60338167 -81.20788151 -60.45494217 0 0 Z M-282.93359375 40.74609375 C-286.83567303 45.00223693 -290.45461814 49.44415511 -294 54 C-294.42007324 54.53302734 -294.84014648 55.06605469 -295.27294922 55.61523438 C-313.52684075 78.92498685 -326.36365256 106.15498986 -333 135 C-333.20882812 135.89041992 -333.41765625 136.78083984 -333.6328125 137.69824219 C-339.75945124 165.12270581 -339.69065558 196.70273624 -333 224 C-332.67854004 225.33635498 -332.67854004 225.33635498 -332.35058594 226.69970703 C-324.84234092 257.03323549 -310.80220294 283.26025929 -292 308 C-290.46677259 311.06645482 -290.38477935 313.69375309 -291 317 C-292.03222656 319.25585938 -292.03222656 319.25585938 -293.453125 321.78125 C-293.99912354 322.75247803 -294.54512207 323.72370605 -295.10766602 324.72436523 C-298.75220342 331.03306841 -302.45631511 337.30472138 -306.1875 343.5625 C-307.0330044 344.98369694 -307.87846309 346.40492108 -308.72387695 347.82617188 C-314.74018757 357.93061932 -320.81721297 367.99638952 -327 378 C-323.985193 378.91654558 -321.70237618 379.02059535 -318.58660889 378.61326599 C-317.70918533 378.50236633 -316.83176178 378.39146667 -315.92774963 378.27720642 C-314.97287155 378.14890945 -314.01799347 378.02061249 -313.03417969 377.88842773 C-311.51639168 377.69363327 -311.51639168 377.69363327 -309.96794128 377.49490356 C-307.77022921 377.21210839 -305.57293859 376.92602311 -303.37602997 376.63705254 C-299.8963782 376.18024655 -296.41553521 375.73387739 -292.93414307 375.2905426 C-283.03564277 374.02844483 -273.1392913 372.7500869 -263.24462891 371.45825195 C-257.19210904 370.66878563 -251.13787915 369.8937689 -245.08237457 369.12755013 C-242.77723987 368.83288287 -240.47281171 368.53263175 -238.16915131 368.22665215 C-234.94214112 367.798297 -231.71327155 367.38829628 -228.48339844 366.98217773 C-227.53661728 366.85185654 -226.58983612 366.72153534 -225.61436462 366.58726501 C-218.136304 365.67781868 -212.50375742 366.98482997 -205.43359375 369.55078125 C-178.86070038 378.94591155 -153.08210015 382.51878258 -125 382 C-125.74443359 380.70642578 -125.74443359 380.70642578 -126.50390625 379.38671875 C-144.16194895 347.96450303 -151.44691966 308.39830243 -141.62841797 273.19140625 C-141.42104004 272.46824219 -141.21366211 271.74507813 -141 271 C-140.80164551 270.26394531 -140.60329102 269.52789062 -140.39892578 268.76953125 C-131.24430758 235.38467062 -108.07207939 205.2360323 -78 188 C-66.16070019 181.61020163 -54.05806641 176.28118931 -41 173 C-39.81019531 172.68289062 -38.62039063 172.36578125 -37.39453125 172.0390625 C-17.75407885 167.67451752 6.57246299 167.78722337 26 173 C26.65097656 173.17160645 27.30195313 173.34321289 27.97265625 173.52001953 C41.75239284 177.23377802 54.62301862 182.944677 67 190 C67.61344657 155.74923302 62.13595241 122.96474771 47 92 C46.62359375 91.22269531 46.2471875 90.44539063 45.859375 89.64453125 C31.78943275 60.89494926 10.82732336 35.91819794 -15 17 C-16.05832031 16.22011719 -17.11664063 15.44023438 -18.20703125 14.63671875 C-97.74064826 -42.1449881 -203.09248892 -31.16422043 -282.93359375 40.74609375 Z " fill="#000000" transform="translate(370,55)"/>
<path d="M0 0 C1.05960938 0.50660156 2.11921875 1.01320313 3.2109375 1.53515625 C30.44974925 15.54480298 49.76186286 40.51887474 60 69 C69.59482991 99.48342913 66.0183389 131.55559684 52 160 C48.42460409 166.82575583 44.63534138 172.90296305 39.28515625 178.4765625 C37.10712129 182.75319041 36.99907918 186.32011192 38 191 C40.41251875 196.13389272 43.41006801 200.81537393 46.5 205.5625 C47.71688418 207.479585 48.92756402 209.40048644 50.13781738 211.32176208 C51.22859095 213.04568098 52.3336742 214.76052091 53.43945312 216.47485352 C55 219 55 219 55 220 C43.03308138 219.4525075 31.29454175 218.09834112 19.4375 216.4375 C16.9069117 216.0844228 14.37613349 215.73320152 11.84449768 215.38771057 C10.28783523 215.17520779 8.73173859 214.95849817 7.17637634 214.73667908 C-1.44485088 213.48025445 -1.44485088 213.48025445 -9.83984375 215.20703125 C-10.50097168 215.46274902 -11.16209961 215.7184668 -11.84326172 215.98193359 C-12.53436035 216.25602051 -13.22545898 216.53010742 -13.9375 216.8125 C-41.05878324 226.78726817 -72.58839938 226.09593402 -99 214 C-99.94286865 213.57460938 -99.94286865 213.57460938 -100.90478516 213.140625 C-130.00441531 199.86686281 -151.85843996 176.2399585 -163.4375 146.5 C-174.27532747 117.01792948 -172.67560235 84.64892238 -160 56 C-146.44470683 27.46454943 -122.71390491 5.47547652 -93.1875 -5.75 C-90.801902 -6.53194601 -88.40530829 -7.28096635 -86 -8 C-85.37416016 -8.19609863 -84.74832031 -8.39219727 -84.10351562 -8.59423828 C-55.97427794 -17.15196408 -26.01698415 -12.49042682 0 0 Z " fill="#FEFEFE" transform="translate(415,257)"/>
</svg>
