<?xml version="1.0" encoding="UTF-8"?>
<svg version="1.1" xmlns="http://www.w3.org/2000/svg" width="64" height="64">
<path d="M0 0 C4.42960068 3.41448385 7.48108551 6.86972307 9 12.3125 C9.50943517 18.52760911 8.44793993 22.60064016 6 28.3125 C6.680625 28.498125 7.36125 28.68375 8.0625 28.875 C12.19723513 30.89838102 15.26691532 33.60166389 18 37.3125 C18.5 40.6875 18.5 40.6875 18 43.3125 C17 44.3125 17 44.3125 14.23828125 44.64453125 C10.12401072 44.22268204 8.97890456 42.98161952 6.1875 40 C5.03314453 38.79923828 5.03314453 38.79923828 3.85546875 37.57421875 C2 35.3125 2 35.3125 1 32.3125 C0.01 32.8075 -0.98 33.3025 -2 33.8125 C-6.77823017 35.82185635 -11.17903574 36.2371494 -16.109375 34.62109375 C-21.03118032 32.40998196 -23.91257292 29.70974464 -27 25.3125 C-28.83866817 19.79649549 -29.11012241 13.40391712 -27.12890625 7.88671875 C-21.5867062 -1.76216069 -10.11435167 -5.34055207 0 0 Z " fill="#AFCEFE" transform="translate(46,19.6875)"/>
<path d="M0 0 C4.42960068 3.41448385 7.48108551 6.86972307 9 12.3125 C9.50943517 18.52760911 8.44793993 22.60064016 6 28.3125 C6.680625 28.498125 7.36125 28.68375 8.0625 28.875 C12.19723513 30.89838102 15.26691532 33.60166389 18 37.3125 C18.5 40.6875 18.5 40.6875 18 43.3125 C17 44.3125 17 44.3125 14.23828125 44.64453125 C10.12401072 44.22268204 8.97890456 42.98161952 6.1875 40 C5.03314453 38.79923828 5.03314453 38.79923828 3.85546875 37.57421875 C2 35.3125 2 35.3125 1 32.3125 C0.01 32.8075 -0.98 33.3025 -2 33.8125 C-6.77823017 35.82185635 -11.17903574 36.2371494 -16.109375 34.62109375 C-21.03118032 32.40998196 -23.91257292 29.70974464 -27 25.3125 C-28.83866817 19.79649549 -29.11012241 13.40391712 -27.12890625 7.88671875 C-21.5867062 -1.76216069 -10.11435167 -5.34055207 0 0 Z M-23.39453125 6.95703125 C-26.0474509 11.1098348 -26.6762773 14.49402426 -26 19.3125 C-23.87059304 25.37049199 -20.85549979 29.3847501 -15 32.3125 C-8.15577297 33.07575018 -3.51464372 32.50362923 2 28.3125 C5.48814876 24.64547182 6.29279901 21.73853649 6.5 16.8125 C6.29969749 11.8917349 5.42917072 9.01239473 2 5.3125 C-6.76456566 -1.30564142 -15.96968237 -1.79888298 -23.39453125 6.95703125 Z " fill="#A9CBFE" transform="translate(46,19.6875)"/>
<path d="M0 0 C1.93166016 0.01740234 1.93166016 0.01740234 3.90234375 0.03515625 C5.19269531 0.04417969 6.48304687 0.05320313 7.8125 0.0625 C8.81152344 0.07410156 9.81054688 0.08570313 10.83984375 0.09765625 C10.86872889 3.24347048 10.88660298 6.38925094 10.90234375 9.53515625 C10.91072266 10.43298828 10.91910156 11.33082031 10.92773438 12.25585938 C10.93256836 13.53686523 10.93256836 13.53686523 10.9375 14.84375 C10.94535522 16.02988892 10.94535522 16.02988892 10.95336914 17.23999023 C10.83984375 19.09765625 10.83984375 19.09765625 9.83984375 20.09765625 C8.1736726 20.13829457 6.5059628 20.14037725 4.83984375 20.09765625 C4.83984375 20.75765625 4.83984375 21.41765625 4.83984375 22.09765625 C3.84984375 22.09765625 2.85984375 22.09765625 1.83984375 22.09765625 C1.83984375 21.43765625 1.83984375 20.77765625 1.83984375 20.09765625 C1.03546875 20.11828125 0.23109375 20.13890625 -0.59765625 20.16015625 C-3.16015625 20.09765625 -3.16015625 20.09765625 -4.16015625 19.09765625 C-4.30130786 16.42706774 -4.20262732 13.77333387 -4.16015625 11.09765625 C-5.48015625 11.09765625 -6.80015625 11.09765625 -8.16015625 11.09765625 C-7.83015625 10.10765625 -7.50015625 9.11765625 -7.16015625 8.09765625 C-6.17015625 8.09765625 -5.18015625 8.09765625 -4.16015625 8.09765625 C-4.18078125 6.96328125 -4.20140625 5.82890625 -4.22265625 4.66015625 C-4.14314531 0.12803292 -4.14314531 0.12803292 0 0 Z " fill="#A7CAFF" transform="translate(53.16015625,-0.09765625)"/>
<path d="M0 0 C2.31243792 -0.02685412 4.6249627 -0.04632841 6.9375 -0.0625 C8.22527344 -0.07410156 9.51304688 -0.08570313 10.83984375 -0.09765625 C14 -0 14 -0 15 1 C15.04092937 3.33297433 15.04241723 5.66705225 15 8 C16.32 8.33 17.64 8.66 19 9 C19 9.66 19 10.32 19 11 C17.68 11 16.36 11 15 11 C15.020625 12.299375 15.04125 13.59875 15.0625 14.9375 C15.08399454 16.29165633 15.07148199 17.64756083 15 19 C14 20 14 20 11.4375 20.0625 C10.633125 20.041875 9.82875 20.02125 9 20 C9 20.66 9 21.32 9 22 C8.01 22 7.02 22 6 22 C6 21.34 6 20.68 6 20 C5.195625 20.020625 4.39125 20.04125 3.5625 20.0625 C1 20 1 20 0 19 C-0.08651611 17.58429877 -0.10704904 16.164405 -0.09765625 14.74609375 C-0.09443359 13.89208984 -0.09121094 13.03808594 -0.08789062 12.15820312 C-0.07951172 11.26037109 -0.07113281 10.36253906 -0.0625 9.4375 C-0.05798828 8.53580078 -0.05347656 7.63410156 -0.04882812 6.70507812 C-0.03700225 4.46998686 -0.0205222 2.23502563 0 0 Z " fill="#A7CAFF" transform="translate(0,0)"/>
<path d="M0 0 C0.99 0 1.98 0 3 0 C3 0.66 3 1.32 3 2 C5.97 2.495 5.97 2.495 9 3 C9 5.64 9 8.28 9 11 C10.32 11 11.64 11 13 11 C12.67 11.99 12.34 12.98 12 14 C11.01 14 10.02 14 9 14 C9 16.64 9 19.28 9 22 C4.05 22 -0.9 22 -6 22 C-6 15.73 -6 9.46 -6 3 C-4.02 2.67 -2.04 2.34 0 2 C0 1.34 0 0.68 0 0 Z " fill="#A7CAFF" transform="translate(6,42)"/>
<path d="M0 0 C5.12093367 2.32338657 8.36529731 5.15637586 10.921875 10.26953125 C11.44036059 15.47138663 11.54205513 19.90513496 9.359375 24.70703125 C4.90288616 29.39205798 1.26565892 31.48052596 -5.140625 31.76953125 C-9.82097624 31.55646518 -12.53797571 30.47252347 -16.078125 27.26953125 C-20.10422288 21.93767189 -21.73889669 17.98737681 -21.078125 11.26953125 C-17.42252675 2.48298119 -9.82184345 -3.4524149 0 0 Z M-17.078125 8.26953125 C-18.92405945 11.96140014 -18.42262199 16.23126104 -18.078125 20.26953125 C-16.28024862 24.86410423 -13.4385537 27.04818078 -9.078125 29.26953125 C-2.68709364 30.08109079 0.72388107 29.04062488 5.921875 25.26953125 C9.13604263 21.64063232 9.4411197 18.17148671 9.27734375 13.484375 C8.59180917 9.21296721 6.24683425 6.46285308 3.11328125 3.640625 C-4.15815203 -0.90888138 -12.04015526 2.15425981 -17.078125 8.26953125 Z " fill="#F2F7FE" transform="translate(41.078125,20.73046875)"/>
<path d="M0 0 C3.95766929 1.94384543 6.32814316 4.96655167 8 9 C8.72320767 13.62516534 8.4121396 17.14401775 6.375 21.375 C2.76076668 25.36967893 -0.64440226 27.1206612 -6 27.4375 C-10.24630623 27.25887909 -12.76068611 25.7873166 -16 23 C-19.33271032 19.2229283 -19.61993863 15.38537908 -19.49609375 10.51171875 C-18.66789838 6.31857211 -16.19763024 3.70887329 -13 1 C-9.0327265 -0.98363675 -4.3131746 -0.54751158 0 0 Z M-15 5 C-16.86520179 8.01551788 -17.2285055 10.23081309 -17.125 13.75 C-17.10695313 14.54921875 -17.08890625 15.3484375 -17.0703125 16.171875 C-17.04710938 16.77515625 -17.02390625 17.3784375 -17 18 C-15.02 17.34 -13.04 16.68 -11 16 C-11.7734375 16.61875 -11.7734375 16.61875 -12.5625 17.25 C-14.21819168 18.88817317 -14.21819168 18.88817317 -14 21.0625 C-13.11970479 23.16697295 -13.11970479 23.16697295 -10.9375 24.3125 C-6.90279469 25.25679273 -4.07412801 24.80146781 0 24 C0.66 23.34 1.32 22.68 2 22 C2 20.68 2 19.36 2 18 C1.34 18 0.68 18 0 18 C0 17.34 0 16.68 0 16 C0.99 16 1.98 16 3 16 C3.33 16.99 3.66 17.98 4 19 C6.51250583 15.23124125 6.53016086 13.46849866 6 9 C4.21847933 6.02638372 2.14692775 3.57346388 -1 2 C-6.32737381 1.45574963 -10.74518485 1.38985381 -15 5 Z " fill="#B1D0FE" transform="translate(42,23)"/>
<path d="M0 0 C3.33600367 2.05838525 4.8262176 3.7393264 7 7 C7.4516129 13.32258065 7.4516129 13.32258065 5 17 C4.67 16.01 4.34 15.02 4 14 C1.98491642 13.26676204 1.98491642 13.26676204 0 13 C0.226875 11.906875 0.45375 10.81375 0.6875 9.6875 C1.32767007 6.17383651 1.32767007 6.17383651 -0.0625 4.0625 C-2.82668977 2.54665399 -4.90228335 2.67045568 -8 3 C-8.66 3.66 -9.32 4.32 -10 5 C-9.938125 6.9490625 -9.938125 6.9490625 -9.875 8.9375 C-9.76433224 12.74862105 -9.76433224 12.74862105 -11.875 15 C-14 16 -14 16 -16 16 C-16.57563851 6.21414538 -16.57563851 6.21414538 -13 2 C-8.79432736 -0.53775129 -4.79552518 -0.71076534 0 0 Z " fill="#F8FAFE" transform="translate(41,25)"/>
<path d="M0 0 C3.63 0 7.26 0 11 0 C11 3.3 11 6.6 11 10 C10.01 9.01 9.02 8.02 8 7 C7.65373409 10.00030058 7.65373409 10.00030058 9.5 11.5625 C9.995 12.036875 10.49 12.51125 11 13 C11 13.66 11 14.32 11 15 C7.37 15 3.74 15 0 15 C0.66 13.35 1.32 11.7 2 10 C1.34 10 0.68 10 0 10 C0 6.7 0 3.4 0 0 Z " fill="#B6D3FE" transform="translate(2,47)"/>
<path d="M0 0 C1.08410156 0.00257812 2.16820312 0.00515625 3.28515625 0.0078125 C4.90744141 0.00394531 4.90744141 0.00394531 6.5625 0 C9.34765625 0.1328125 9.34765625 0.1328125 11.34765625 1.1328125 C10.86969801 5.67341575 10.86969801 5.67341575 8.78515625 7.5078125 C5.2182867 8.42239444 1.9018422 8.03777976 -1.65234375 7.1328125 C-2.64234375 6.4728125 -3.63234375 5.8128125 -4.65234375 5.1328125 C-3.53327211 0.17692379 -3.53327211 0.17692379 0 0 Z " fill="#FCFDFF" transform="translate(32.65234375,39.8671875)"/>
<path d="M0 0 C3.63 0 7.26 0 11 0 C11 3.3 11 6.6 11 10 C10.01 9.34 9.02 8.68 8 8 C6.68 8 5.36 8 4 8 C3.67 6.68 3.34 5.36 3 4 C2.34 5.98 1.68 7.96 1 10 C0.67 10 0.34 10 0 10 C0 6.7 0 3.4 0 0 Z " fill="#E9F2FE" transform="translate(51,2)"/>
<path d="M0 0 C3.63 0 7.26 0 11 0 C11 3.3 11 6.6 11 10 C10.01 9.34 9.02 8.68 8 8 C6.68 8 5.36 8 4 8 C4 6.68 4 5.36 4 4 C4.99 4 5.98 4 7 4 C7 3.34 7 2.68 7 2 C4.46115547 3.15565651 4.46115547 3.15565651 2 5 C1.11341534 7.59122743 1.11341534 7.59122743 1 10 C0.67 10 0.34 10 0 10 C0 6.7 0 3.4 0 0 Z " fill="#F1F6FE" transform="translate(2,2)"/>
<path d="M0 0 C2.5 0.125 2.5 0.125 3.5 1.125 C3.625 4.125 3.625 4.125 3.5 7.125 C2.5 8.125 2.5 8.125 0.0625 8.3125 C-2.5 8.125 -2.5 8.125 -4.5 6.125 C-3.77607362 0.18880368 -3.77607362 0.18880368 0 0 Z " fill="#F9FBFE" transform="translate(36.5,28.875)"/>
<path d="M0 0 C3.63 0 7.26 0 11 0 C11 3.3 11 6.6 11 10 C9 8 9 8 8.875 5.375 C8.91625 4.59125 8.9575 3.8075 9 3 C7.02 3 5.04 3 3 3 C2.34 5.31 1.68 7.62 1 10 C0.67 10 0.34 10 0 10 C0 6.7 0 3.4 0 0 Z " fill="#F4F8FE" transform="translate(2,47)"/>
<path d="M0 0 C3.35954694 0.44464592 4.96614217 1.6229246 7.25 4.0625 C7.77078125 4.61035156 8.2915625 5.15820312 8.828125 5.72265625 C9.21484375 6.14417969 9.6015625 6.56570312 10 7 C9.67 7.99 9.34 8.98 9 10 C5.78956118 8.61811547 3.95063635 7.07578097 1.75 4.375 C1.22921875 3.74335937 0.7084375 3.11171875 0.171875 2.4609375 C-0.21484375 1.97882812 -0.6015625 1.49671875 -1 1 C-0.67 0.67 -0.34 0.34 0 0 Z " fill="#F3F8FF" transform="translate(52,52)"/>
<path d="M0 0 C2.31 0 4.62 0 7 0 C7.66 1.32 8.32 2.64 9 4 C5.37 4 1.74 4 -2 4 C-1.34 2.68 -0.68 1.36 0 0 Z " fill="#F8FBFF" transform="translate(4,58)"/>
<path d="M0 0 C2.31 0 4.62 0 7 0 C7.66 1.32 8.32 2.64 9 4 C5.37 4 1.74 4 -2 4 C-1.34 2.68 -0.68 1.36 0 0 Z " fill="#FBFCFF" transform="translate(53,13)"/>
<path d="M0 0 C2.31 0 4.62 0 7 0 C7.66 1.32 8.32 2.64 9 4 C5.37 4 1.74 4 -2 4 C-1.34 2.68 -0.68 1.36 0 0 Z " fill="#FBFCFF" transform="translate(4,13)"/>
<path d="M0 0 C0 0.66 0 1.32 0 2 C-0.99 2 -1.98 2 -3 2 C-3 3.32 -3 4.64 -3 6 C-2.01 6.33 -1.02 6.66 0 7 C0.33 7.66 0.66 8.32 1 9 C-1.31 9.33 -3.62 9.66 -6 10 C-6.36567164 3.539801 -6.36567164 3.539801 -4.6875 1.0625 C-3 0 -3 0 0 0 Z " fill="#B5D2FE" transform="translate(9,4)"/>
<path d="M0 0 C2.86724686 0.57344937 3.8614515 0.8614515 6 3 C5.67 3.99 5.34 4.98 5 6 C3.35 6 1.7 6 0 6 C0 4.02 0 2.04 0 0 Z " fill="#CFE1FE" transform="translate(55,4)"/>
<path d="M0 0 C2.97 0.495 2.97 0.495 6 1 C6.33 2.65 6.66 4.3 7 6 C5 6 3 6 1 6 C0.67 4.02 0.34 2.04 0 0 Z " fill="#D2E4FE" transform="translate(5,49)"/>
<path d="M0 0 C0.33 0 0.66 0 1 0 C1 1.65 1 3.3 1 5 C1.99 5.33 2.98 5.66 4 6 C4.33 6.66 4.66 7.32 5 8 C2.69 8.33 0.38 8.66 -2 9 C-1.125 1.125 -1.125 1.125 0 0 Z " fill="#B3D0FE" transform="translate(54,5)"/>
<path d="M0 0 C0.99 0.66 1.98 1.32 3 2 C2.67 2.99 2.34 3.98 2 5 C0.35 5 -1.3 5 -3 5 C-3 3.68 -3 2.36 -3 1 C-2.01 0.67 -1.02 0.34 0 0 Z " fill="#D7E7FE" transform="translate(9,5)"/>
<path d="M0 0 C2.97 0 5.94 0 9 0 C9 0.99 9 1.98 9 3 C7.6078125 2.7215625 7.6078125 2.7215625 6.1875 2.4375 C2.98656229 1.75876119 2.98656229 1.75876119 0 3 C0 2.01 0 1.02 0 0 Z " fill="#F7FAFE" transform="translate(52,3)"/>
<path d="M0 0 C1.65 0 3.3 0 5 0 C5 0.99 5 1.98 5 3 C3.35 3 1.7 3 0 3 C0 2.01 0 1.02 0 0 Z " fill="#A5C9FF" transform="translate(20,53)"/>
<path d="M0 0 C0.99 0 1.98 0 3 0 C3 1.65 3 3.3 3 5 C2.01 5 1.02 5 0 5 C0 3.35 0 1.7 0 0 Z " fill="#A6C9FF" transform="translate(6,36)"/>
<path d="M0 0 C0.99 0 1.98 0 3 0 C3 1.65 3 3.3 3 5 C2.01 5 1.02 5 0 5 C0 3.35 0 1.7 0 0 Z " fill="#A5C9FF" transform="translate(55,23)"/>
<path d="M0 0 C0.99 0 1.98 0 3 0 C3 1.65 3 3.3 3 5 C2.01 5 1.02 5 0 5 C0 3.35 0 1.7 0 0 Z " fill="#A6C9FF" transform="translate(6,23)"/>
<path d="M0 0 C1.65 0 3.3 0 5 0 C5 0.99 5 1.98 5 3 C3.35 3 1.7 3 0 3 C0 2.01 0 1.02 0 0 Z " fill="#A5C8FF" transform="translate(39,8)"/>
<path d="M0 0 C1.65 0 3.3 0 5 0 C5 0.99 5 1.98 5 3 C3.35 3 1.7 3 0 3 C0 2.01 0 1.02 0 0 Z " fill="#A6C7FF" transform="translate(33,8)"/>
<path d="M0 0 C1.65 0 3.3 0 5 0 C5 0.99 5 1.98 5 3 C3.35 3 1.7 3 0 3 C0 2.01 0 1.02 0 0 Z " fill="#A5C6FF" transform="translate(26,8)"/>
<path d="M0 0 C1.65 0 3.3 0 5 0 C5 0.99 5 1.98 5 3 C3.35 3 1.7 3 0 3 C0 2.01 0 1.02 0 0 Z " fill="#A6C9FF" transform="translate(20,8)"/>
<path d="M0 0 C0.66 0.33 1.32 0.66 2 1 C1.67 2.65 1.34 4.3 1 6 C0.34 5.67 -0.32 5.34 -1 5 C-0.67 3.35 -0.34 1.7 0 0 Z " fill="#A6C9FF" transform="translate(7,29)"/>
</svg>
