<?xml version="1.0" encoding="UTF-8"?>
<svg version="1.1" xmlns="http://www.w3.org/2000/svg" width="512" height="512">
<path d="M0 0 C10.19605793 5.62368498 17.24807775 13.63706705 20.78417969 24.796875 C21.85786524 29.28651637 21.96220768 33.7800517 22.07421875 38.37890625 C22.10837891 39.33990234 22.14253906 40.30089844 22.17773438 41.29101562 C22.25928542 43.63269552 22.32872841 45.97404488 22.38671875 48.31640625 C23.23713745 48.52620117 23.23713745 48.52620117 24.10473633 48.74023438 C51.93507674 55.70691985 76.33066283 66.3702328 97.38671875 86.31640625 C98.34578125 87.19941406 99.30484375 88.08242187 100.29296875 88.9921875 C112.76059164 100.72261902 121.4170292 114.77243511 128.38671875 130.31640625 C129.10988281 131.91355469 129.10988281 131.91355469 129.84765625 133.54296875 C132.48165708 139.84860709 134.19840923 146.21785033 135.63671875 152.87890625 C135.88180176 154.01162964 135.88180176 154.01162964 136.13183594 155.16723633 C138.15379198 165.22420423 138.53413565 175.39090351 138.52856445 185.62329102 C138.53377609 187.21409485 138.53377609 187.21409485 138.53909302 188.83703613 C138.5463915 191.12036693 138.55176798 193.40370455 138.55538368 195.68704414 C138.56264189 199.32901115 138.57838 202.97085048 138.59672546 206.61277771 C138.64873196 216.9618037 138.69701971 227.3107585 138.71264648 237.65991211 C138.72286526 244.0152321 138.75253457 250.37022636 138.79396629 256.72541618 C138.8060874 259.11736497 138.81143313 261.50936015 138.80916786 263.90133858 C138.79232429 287.50917381 141.32432169 310.71570766 148.38671875 333.31640625 C148.60553711 334.01846191 148.82435547 334.72051758 149.04980469 335.44384766 C157.69652288 362.56994545 171.3617235 387.31672661 189.38671875 409.31640625 C189.88478027 409.92871094 190.3828418 410.54101562 190.89599609 411.171875 C196.38823939 417.89454121 202.0805939 424.33552566 208.38671875 430.31640625 C208.05671875 431.30640625 207.72671875 432.29640625 207.38671875 433.31640625 C193.39853379 435.72949396 179.409538 438.13783328 165.41965103 440.5410347 C158.92052008 441.65759967 152.42163718 442.77556542 145.92333984 443.89697266 C139.6279873 444.98330066 133.33195913 446.06563571 127.03548431 447.14543915 C124.65805372 447.55382843 122.28085156 447.9635503 119.90390778 448.37476349 C106.94137979 450.61630282 93.96931898 452.72535576 80.94824219 454.60058594 C79.75058353 454.7738805 78.55292488 454.94717506 77.31897354 455.12572098 C76.20806225 455.28264797 75.09715096 455.43957497 73.95257568 455.60125732 C72.97242367 455.73989574 71.99227165 455.87853416 70.98241806 456.02137375 C68.38671875 456.31640625 68.38671875 456.31640625 64.38671875 456.31640625 C64.01353516 457.59644531 64.01353516 457.59644531 63.6328125 458.90234375 C56.5869438 478.20669875 39.10403978 493.49932376 21.01171875 502.19140625 C0.84670456 511.1933212 -23.70955902 513.2553731 -44.61328125 505.31640625 C-53.93788467 501.40158107 -62.64222515 496.5659457 -70.61328125 490.31640625 C-71.27199219 489.82140625 -71.93070313 489.32640625 -72.609375 488.81640625 C-82.28439981 481.02966596 -90.64213556 469.64306733 -95.61328125 458.31640625 C-95.61328125 457.65640625 -95.61328125 456.99640625 -95.61328125 456.31640625 C-96.66974854 456.21046143 -97.72621582 456.1045166 -98.81469727 455.99536133 C-110.8043269 454.75201204 -122.66210562 452.97865482 -134.55078125 451.00390625 C-135.54578644 450.84010468 -136.54079163 450.6763031 -137.56594849 450.50753784 C-158.55472569 447.05185017 -179.51785435 443.44218981 -200.47890091 439.8227272 C-203.05334924 439.3784631 -205.62796218 438.93516338 -208.2026062 438.49203491 C-212.28195789 437.78956046 -216.360686 437.08356883 -220.43894958 436.37480545 C-221.96047353 436.1108299 -223.48218032 435.84790597 -225.0040741 435.58607101 C-227.09626844 435.22582897 -229.18773441 434.86162604 -231.27905273 434.49633789 C-233.04925026 434.18944786 -233.04925026 434.18944786 -234.85520935 433.87635803 C-237.61328125 433.31640625 -237.61328125 433.31640625 -239.61328125 432.31640625 C-238.16582374 428.94150532 -236.35324271 426.93004132 -233.67578125 424.44140625 C-227.66616082 418.55698625 -222.65941161 412.02230533 -217.61328125 405.31640625 C-217.18370117 404.7529248 -216.75412109 404.18944336 -216.31152344 403.60888672 C-209.0601609 394.05483978 -203.1474036 383.94658148 -197.61328125 373.31640625 C-197.26023926 372.64834961 -196.90719727 371.98029297 -196.54345703 371.29199219 C-179.31028386 338.31055306 -173.33865128 301.92110057 -173.308321 265.12799644 C-173.30459438 261.48714814 -173.28770014 257.84655737 -173.26756287 254.20576477 C-173.21274373 243.86745025 -173.18156922 233.52909998 -173.15698242 223.19067383 C-173.14095431 216.82852175 -173.11058691 210.46655614 -173.07221794 204.10450172 C-173.06071024 201.70758887 -173.05463886 199.31064249 -173.05453682 196.91370201 C-173.05348356 178.76374266 -172.76842834 159.97850374 -166.55078125 142.69140625 C-166.25405518 141.83933594 -165.9573291 140.98726562 -165.65161133 140.109375 C-158.62700483 120.76268352 -147.64769999 105.22631803 -133.61328125 90.31640625 C-133.06542969 89.71570313 -132.51757812 89.115 -131.953125 88.49609375 C-112.53211926 67.97758646 -84.61156038 55.87397514 -57.61328125 49.31640625 C-57.53980469 47.52396484 -57.53980469 47.52396484 -57.46484375 45.6953125 C-56.78775707 30.61388053 -55.54415537 16.86082948 -43.74609375 5.8828125 C-31.32779423 -3.23758696 -14.40490174 -6.3310977 0 0 Z " fill="#E7ECED" transform="translate(271.61328125,2.68359375)"/>
<path d="M0 0 C8.42860149 -0.25691658 16.68915078 0.5542094 25.0625 1.4375 C41.60924567 3.16404511 58.04699736 4.20836322 74.6875 4.1875 C75.44281006 4.18756042 76.19812012 4.18762085 76.97631836 4.18768311 C100.0040867 4.16196378 123.23894169 3.3109521 146.12109375 0.60986328 C150.79407365 0.05899255 155.30394803 -0.07353996 160 0 C154.60249863 18.51370935 138.47838358 33.74044161 122.17089844 43.04345703 C102.90247756 53.45701818 79.81526989 56.71969449 58.375 51.5 C46.26365334 47.88448196 34.93250467 41.78737208 25 34 C24.34128906 33.505 23.68257812 33.01 23.00390625 32.5 C13.32888144 24.71325971 4.97114569 13.32666108 0 2 C0 1.34 0 0.68 0 0 Z " fill="#C7CAC7" transform="translate(176,459)"/>
<path d="M0 0 C2.33179948 2.76901188 2.91726227 4.43265559 3.4375 8 C2.8943967 11.72413693 1.59513183 13.32854076 -1 16 C-5.40465058 18.20232529 -10.19622313 17.25570844 -14.68359375 15.828125 C-15.93891427 15.31174613 -17.19012816 14.78529452 -18.4375 14.25 C-47.41283164 2.63029366 -81.10758027 2.69801176 -109.95166016 14.7824707 C-129.28788588 23.21882399 -147.4009711 37.56468273 -155.44921875 57.609375 C-158.04592209 64.6461317 -160.00648911 70.87336168 -160.3125 78.375 C-160.69434 83.85625166 -161.28609228 86.94846431 -165 91 C-168.15796107 92.57898053 -171.60670636 92.81928171 -175 92 C-178.44048554 89.38759694 -179.83328497 87.89881149 -180.62890625 83.609375 C-180.16309055 56.53726256 -169.43013955 35.81785783 -150.22192383 16.87207031 C-137.72000149 4.86941797 -122.42903723 -2.82823411 -106 -8 C-105.26152832 -8.24516357 -104.52305664 -8.49032715 -103.76220703 -8.74291992 C-97.39488996 -10.78220447 -91.13187525 -11.90163572 -84.5 -12.6875 C-82.92025391 -12.87530029 -82.92025391 -12.87530029 -81.30859375 -13.06689453 C-53.95097313 -16.1209424 -24.47989229 -13.46940502 0 0 Z " fill="#FEFEFE" transform="translate(319,101)"/>
<path d="M0 0 C10.15357159 5.60025143 17.28942173 13.63767329 20.81542969 24.765625 C21.86411005 29.44793798 21.69741742 34.1057474 21.57421875 38.87890625 C21.55391602 40.39194336 21.55391602 40.39194336 21.53320312 41.93554688 C21.49821451 44.39641246 21.44913033 46.8561096 21.38671875 49.31640625 C20.27554688 49.18363281 19.164375 49.05085938 18.01953125 48.9140625 C16.5169328 48.73562893 15.01432831 48.55724627 13.51171875 48.37890625 C12.42117188 48.24838867 12.42117188 48.24838867 11.30859375 48.11523438 C9.00203987 47.84208984 6.6946454 47.57768991 4.38671875 47.31640625 C3.58830566 47.22375488 2.78989258 47.13110352 1.96728516 47.03564453 C-12.71157725 45.4317301 -27.42535396 45.6447611 -41.96630859 48.24902344 C-46.94133457 49.13859062 -51.55509556 49.45451371 -56.61328125 49.31640625 C-56.92209242 33.41263081 -56.82389515 20.0589994 -45.48828125 7.50390625 C-33.73242923 -3.43483497 -14.68462562 -6.45403913 0 0 Z " fill="#C7CAC7" transform="translate(271.61328125,2.68359375)"/>
</svg>
