<?xml version="1.0" encoding="UTF-8"?>
<!-- Generator: visioncortex VTracer 0.6.3 -->
<svg version="1.1" xmlns="http://www.w3.org/2000/svg" width="1280" height="1280">
<path d="M0 0 C1.41 -0 2.81 -0 4.22 -0 C7.14 -0 10.07 -0 12.99 0 C16.67 0.01 20.35 0 24.03 -0 C37.11 -0.02 50.19 -0.02 63.26 0.58 C64.56 0.64 64.56 0.64 65.88 0.7 C71.61 1 71.61 1 72.74 2.13 C74.92 2.3 77.11 2.41 79.3 2.51 C89.79 3.04 100.16 4.48 110.56 5.87 C112.7 6.17 112.7 6.17 114.74 6.13 C114.74 6.79 114.74 7.45 114.74 8.13 C116.03 8.1 117.32 8.07 118.64 8.04 C123.62 8.04 128.34 8.7 133.24 9.57 C134.05 9.71 134.86 9.84 135.69 9.98 C141.6 10.99 141.6 10.99 142.74 12.13 C145.22 12.58 147.69 12.99 150.18 13.38 C157.47 14.59 164.5 16.31 171.58 18.42 C175.97 19.71 180.19 20.6 184.74 21.13 C184.74 21.79 184.74 22.45 184.74 23.13 C185.71 23.07 186.68 23.01 187.68 22.95 C192.42 22.96 196.32 24.53 200.74 26.13 C203.15 26.93 205.57 27.72 207.99 28.51 C212.97 30.15 217.86 31.94 222.74 33.88 C226.1 35.21 229.14 36.37 232.74 36.76 C236.16 37.19 237.81 38.36 240.74 40.13 C242.47 40.82 244.22 41.47 245.99 42.07 C250.36 43.61 254.57 45.33 258.77 47.3 C260.74 48.13 262.65 48.67 264.74 49.13 C264.74 49.79 264.74 50.45 264.74 51.13 C267.71 51.79 270.68 52.45 273.74 53.13 C273.74 53.79 273.74 54.45 273.74 55.13 C274.63 55.24 275.51 55.34 276.43 55.45 C279.86 56.16 281.8 57.29 284.74 59.13 C286.72 59.84 288.72 60.52 290.74 61.13 C290.74 61.79 290.74 62.45 290.74 63.13 C291.56 63.38 292.39 63.63 293.24 63.89 C297.26 65.32 300.95 67.13 304.74 69.07 C305.42 69.42 306.11 69.77 306.82 70.12 C308.16 70.81 309.51 71.49 310.86 72.18 C312.55 73.04 314.24 73.88 315.94 74.72 C318.49 76.01 321 77.36 323.49 78.76 C325.56 79.92 327.61 81.07 329.74 82.13 C329.74 82.79 329.74 83.45 329.74 84.13 C330.5 84.24 331.26 84.34 332.05 84.45 C334.74 85.13 334.74 85.13 336.09 86.5 C338.14 88.53 340.3 89.62 342.86 90.95 C347.41 93.36 351.65 95.98 355.86 98.93 C357.83 100.3 357.83 100.3 360.74 101.13 C361.4 101.79 362.06 102.45 362.74 103.13 C364.13 104.06 364.13 104.06 365.55 105.01 C368.74 107.13 368.74 107.13 371.11 109.07 C375.04 112.16 379.27 114.9 383.74 117.13 C384.6 118.06 385.47 118.99 386.36 119.95 C388.68 122.33 390.78 123.8 393.8 125.2 C397.58 126.94 399.88 129.06 402.74 132.13 C407.43 136.56 412.01 140.15 417.74 143.13 C417.74 143.79 417.74 144.45 417.74 145.13 C418.73 145.46 419.72 145.79 420.74 146.13 C420.74 146.79 420.74 147.45 420.74 148.13 C422.13 148.47 422.13 148.47 423.55 148.82 C426.74 150.13 426.74 150.13 428.05 152.38 C430.19 155.86 432.7 157.2 436.19 159.21 C438.49 160.95 440.01 162.53 441.85 164.71 C445.84 169.32 450.12 173.57 454.48 177.83 C456.14 179.47 457.8 181.11 459.46 182.74 C462.05 185.3 464.64 187.85 467.24 190.39 C469.77 192.86 472.28 195.34 474.79 197.83 C475.97 198.97 475.97 198.97 477.16 200.13 C477.88 200.84 478.6 201.56 479.34 202.3 C480.29 203.23 480.29 203.23 481.26 204.18 C483 206.48 483.26 208.32 483.74 211.13 C485.54 212.2 485.54 212.2 487.74 213.13 C490.49 215.63 490.49 215.63 492.74 218.13 C492.74 218.79 492.74 219.45 492.74 220.13 C493.73 220.46 494.72 220.79 495.74 221.13 C495.74 221.79 495.74 222.45 495.74 223.13 C496.4 223.13 497.06 223.13 497.74 223.13 C498.57 224.71 498.57 224.71 499.43 226.32 C501.41 229.82 503.81 232.36 506.74 235.13 C508.74 238.13 508.74 238.13 508.74 241.13 C509.32 241.36 509.89 241.59 510.49 241.82 C514.94 244.41 517.15 248.83 519.74 253.13 C520.46 254 521.18 254.87 521.93 255.76 C523.74 258.13 523.74 258.13 523.74 261.13 C524.73 261.46 525.72 261.79 526.74 262.13 C528.2 264.02 528.2 264.02 529.68 266.38 C531.3 268.93 532.87 271.3 534.8 273.63 C537.1 276.6 538.82 279.74 540.59 283.05 C541.81 285.33 541.81 285.33 543.74 288.13 C543.74 289.12 543.74 290.11 543.74 291.13 C544.73 291.46 545.72 291.79 546.74 292.13 C548.74 295.13 548.74 295.13 548.74 299.13 C549.73 299.46 550.72 299.79 551.74 300.13 C551.74 301.45 551.74 302.77 551.74 304.13 C552.73 304.46 553.72 304.79 554.74 305.13 C558.74 311.19 558.74 311.19 558.74 316.13 C559.73 316.46 560.72 316.79 561.74 317.13 C562.45 318.78 563.11 320.45 563.74 322.13 C564.72 323.48 565.72 324.81 566.74 326.13 C568.6 329.27 568.74 330.26 568.74 334.13 C569.4 334.13 570.06 334.13 570.74 334.13 C572.77 337.86 573.74 339.8 573.74 344.13 C574.4 344.13 575.06 344.13 575.74 344.13 C577.77 347.86 578.74 349.8 578.74 354.13 C579.4 354.13 580.06 354.13 580.74 354.13 C581.75 356.21 582.75 358.3 583.74 360.38 C584.57 362.12 584.57 362.12 585.43 363.9 C586.74 367.13 586.74 367.13 586.74 371.13 C587.4 371.13 588.06 371.13 588.74 371.13 C588.74 372.78 588.74 374.43 588.74 376.13 C589.4 376.13 590.06 376.13 590.74 376.13 C591.23 377.42 591.23 377.42 591.73 378.73 C594.47 386 594.47 386 597.55 393.13 C598.71 396.07 599.02 398.01 598.74 401.13 C599.4 401.13 600.06 401.13 600.74 401.13 C613.81 436.69 613.81 436.69 614.74 446.13 C615.4 446.79 616.06 447.45 616.74 448.13 C617.49 450.63 618.14 453.1 618.74 455.63 C618.91 456.35 619.09 457.07 619.27 457.81 C620.43 462.65 621.47 467.51 622.34 472.41 C622.58 474.15 622.58 474.15 623.74 475.13 C623.88 476.18 624.03 477.24 624.18 478.32 C624.6 482.02 624.6 482.02 625.74 484.95 C627.1 489.29 627.4 493.61 627.74 498.13 C628.07 498.13 628.4 498.13 628.74 498.13 C628.79 498.71 628.84 499.29 628.89 499.89 C629.23 503.44 629.56 506.63 630.74 510.01 C631.99 513.92 632.22 517.66 632.49 521.74 C632.6 524.15 632.6 524.15 633.74 526.13 C634.02 529.28 634.19 532.42 634.36 535.58 C634.71 538.83 635.43 541.79 636.27 544.94 C637.16 549.08 637.26 553.28 637.43 557.51 C637.47 558.41 637.52 559.31 637.57 560.24 C637.87 566.87 637.87 566.87 636.74 569.13 C637.4 569.13 638.06 569.13 638.74 569.13 C638.74 603.45 638.74 637.77 638.74 673.13 C638.08 673.13 637.42 673.13 636.74 673.13 C637.07 674.12 637.4 675.11 637.74 676.13 C637.78 678.12 637.78 678.12 637.65 680.37 C637.61 681.19 637.56 682.01 637.52 682.86 C637.44 684.14 637.44 684.14 637.36 685.45 C637.32 686.29 637.28 687.13 637.23 688 C636.98 692.44 636.58 696.75 635.74 701.13 C635.08 701.13 634.42 701.13 633.74 701.13 C633.75 702.19 633.76 703.25 633.77 704.34 C633.78 705.73 633.79 707.12 633.8 708.51 C633.81 709.21 633.82 709.91 633.83 710.62 C633.85 715.91 633.85 715.91 632.74 718.13 C632.27 721.35 631.87 724.58 631.49 727.81 C630.84 733.03 630.84 733.03 629.74 734.13 C629.53 735.77 629.37 737.42 629.24 739.07 C628.85 743.91 628.85 743.91 627.74 746.13 C627.4 747.98 627.09 749.84 626.8 751.7 C624.42 766.45 624.42 766.45 622.74 768.13 C622.39 769.65 622.08 771.17 621.8 772.7 C619.52 784.58 619.52 784.58 617.74 788.13 C617.36 789.5 617.01 790.88 616.68 792.26 C616.37 793.54 616.06 794.82 615.74 796.13 C615.08 796.13 614.42 796.13 613.74 796.13 C613.74 798.44 613.74 800.75 613.74 803.13 C613.08 803.13 612.42 803.13 611.74 803.13 C612.07 804.12 612.4 805.11 612.74 806.13 C612.35 808.09 612.35 808.09 611.63 810.3 C611.37 811.11 611.11 811.92 610.84 812.76 C610.42 814.03 610.42 814.03 609.99 815.32 C609.72 816.15 609.46 816.97 609.18 817.82 C607.51 822.98 605.68 828.07 603.74 833.13 C603.08 833.13 602.42 833.13 601.74 833.13 C601.8 834.56 601.8 834.56 601.86 836.01 C601.74 839.13 601.74 839.13 599.74 841.13 C599.22 842.8 598.77 844.49 598.36 846.2 C597 851.48 595.06 856.21 592.74 861.13 C592.06 862.79 591.39 864.46 590.74 866.13 C590.08 866.13 589.42 866.13 588.74 866.13 C589.07 867.12 589.4 868.11 589.74 869.13 C589.41 869.79 589.08 870.45 588.74 871.13 C588.08 871.13 587.42 871.13 586.74 871.13 C586.74 872.45 586.74 873.77 586.74 875.13 C586.08 875.46 585.42 875.79 584.74 876.13 C584.26 877.77 583.8 879.41 583.36 881.06 C582.21 884.88 580.41 888.42 578.68 892.01 C578.09 893.24 578.09 893.24 577.49 894.49 C574.69 900.28 571.79 906.01 568.8 911.7 C568.42 912.42 568.05 913.13 567.66 913.88 C566.2 916.6 564.94 918.94 562.74 921.13 C562.03 922.78 561.36 924.45 560.74 926.13 C560.08 926.13 559.42 926.13 558.74 926.13 C559.07 927.12 559.4 928.11 559.74 929.13 C558.49 931.57 558.49 931.57 556.74 934.13 C556.22 934.9 555.71 935.66 555.18 936.45 C554.46 937.28 554.46 937.28 553.74 938.13 C553.08 938.13 552.42 938.13 551.74 938.13 C551.68 938.79 551.61 939.45 551.55 940.13 C550.43 944.25 548.4 947.79 545.74 951.13 C545.08 951.13 544.42 951.13 543.74 951.13 C543.68 951.81 543.61 952.49 543.55 953.2 C542.61 956.59 541.1 958.6 539 961.38 C537.57 963.27 537.57 963.27 536.24 966.2 C534.49 969.63 532.24 972.21 529.74 975.13 C528.99 976.25 528.26 977.37 527.55 978.51 C526.95 979.37 526.35 980.24 525.74 981.13 C525.08 981.13 524.42 981.13 523.74 981.13 C523.68 981.85 523.61 982.58 523.55 983.32 C522.49 987 520.49 988.51 517.74 991.13 C516.69 992.77 515.68 994.43 514.74 996.13 C514.08 997.12 513.42 998.11 512.74 999.13 C512.08 999.13 511.42 999.13 510.74 999.13 C510.41 1000.12 510.08 1001.11 509.74 1002.13 C508.75 1002.13 507.76 1002.13 506.74 1002.13 C507.09 1003.01 507.09 1003.01 507.45 1003.91 C507.74 1006.13 507.74 1006.13 506.34 1007.98 C505.69 1008.57 505.04 1009.15 504.36 1009.76 C501.66 1012.15 501.66 1012.15 499.74 1015.13 C498.75 1015.13 497.76 1015.13 496.74 1015.13 C497.07 1016.12 497.4 1017.11 497.74 1018.13 C497.1 1018.76 496.46 1019.39 495.8 1020.03 C494.98 1020.85 494.15 1021.67 493.3 1022.51 C492.07 1023.73 492.07 1023.73 490.8 1024.97 C488.7 1026.96 488.7 1026.96 487.74 1029.13 C487.08 1029.13 486.42 1029.13 485.74 1029.13 C485.41 1030.12 485.08 1031.11 484.74 1032.13 C483.75 1032.13 482.76 1032.13 481.74 1032.13 C481.99 1032.69 482.24 1033.25 482.5 1033.83 C482.74 1036.13 482.74 1036.13 481.06 1038.44 C480.22 1039.29 479.38 1040.14 478.51 1041.01 C478.05 1041.48 477.59 1041.95 477.11 1042.43 C475.58 1043.99 474.03 1045.52 472.48 1047.06 C471.41 1048.13 470.34 1049.2 469.27 1050.28 C467.03 1052.53 464.78 1054.76 462.53 1057 C459.63 1059.86 456.76 1062.75 453.89 1065.65 C451.69 1067.87 449.48 1070.07 447.26 1072.28 C446.2 1073.34 445.14 1074.4 444.08 1075.47 C442.6 1076.96 441.11 1078.43 439.61 1079.9 C438.77 1080.75 437.92 1081.59 437.05 1082.46 C434.74 1084.13 434.74 1084.13 432.43 1083.9 C431.59 1083.52 431.59 1083.52 430.74 1083.13 C430.41 1084.12 430.08 1085.11 429.74 1086.13 C428.09 1087.82 426.42 1089.49 424.74 1091.13 C424.04 1092.04 423.34 1092.95 422.61 1093.88 C420.74 1096.13 420.74 1096.13 417.74 1097.13 C417.41 1096.8 417.08 1096.47 416.74 1096.13 C416.31 1096.64 415.89 1097.15 415.45 1097.67 C405.01 1109.93 405.01 1109.93 397.74 1112.13 C397.74 1112.79 397.74 1113.45 397.74 1114.13 C396.35 1115.08 394.95 1116.02 393.52 1116.91 C390.92 1118.69 388.71 1120.87 386.45 1123.06 C384.74 1124.13 384.74 1124.13 382.53 1123.8 C381.94 1123.58 381.35 1123.36 380.74 1123.13 C380.66 1123.75 380.57 1124.37 380.49 1125.01 C379.74 1127.13 379.74 1127.13 377.86 1128.45 C375.74 1129.13 375.74 1129.13 372.74 1128.13 C372.64 1128.75 372.53 1129.37 372.43 1130.01 C371.74 1132.13 371.74 1132.13 368.74 1134.13 C368.06 1134.46 367.38 1134.79 366.68 1135.13 C364.58 1136.09 364.58 1136.09 362.74 1138.13 C360.11 1138.26 360.11 1138.26 357.74 1138.13 C357.64 1138.73 357.53 1139.33 357.43 1139.95 C356.63 1142.49 355.88 1143.55 353.74 1145.13 C352.42 1145.13 351.1 1145.13 349.74 1145.13 C349.41 1146.12 349.08 1147.11 348.74 1148.13 C347.75 1148.46 346.76 1148.79 345.74 1149.13 C345.74 1149.46 345.74 1149.79 345.74 1150.13 C344.93 1150.26 344.13 1150.38 343.3 1150.51 C342.46 1150.71 341.61 1150.92 340.74 1151.13 C340.41 1151.79 340.08 1152.45 339.74 1153.13 C334.79 1157.18 330.09 1160.07 323.74 1161.13 C323.74 1161.79 323.74 1162.45 323.74 1163.13 C322.13 1163.26 322.13 1163.26 320.49 1163.38 C316.31 1164.22 315.58 1165.2 312.74 1168.13 C309.99 1168.38 309.99 1168.38 307.74 1168.13 C307.7 1168.75 307.66 1169.37 307.61 1170.01 C307.32 1170.71 307.04 1171.41 306.74 1172.13 C303.68 1173.38 303.68 1173.38 300.74 1174.13 C300.74 1174.46 300.74 1174.79 300.74 1175.13 C299.09 1175.46 297.44 1175.79 295.74 1176.13 C295.74 1176.79 295.74 1177.45 295.74 1178.13 C293.1 1178.13 290.46 1178.13 287.74 1178.13 C287.08 1179.78 286.42 1181.43 285.74 1183.13 C283.1 1183.13 280.46 1183.13 277.74 1183.13 C278.07 1184.12 278.4 1185.11 278.74 1186.13 C277.09 1185.8 275.44 1185.47 273.74 1185.13 C274.07 1186.12 274.4 1187.11 274.74 1188.13 C269.11 1189.26 269.11 1189.26 265.74 1188.13 C265.41 1189.45 265.08 1190.77 264.74 1192.13 C263.73 1192.42 262.72 1192.71 261.68 1193.01 C260.73 1193.28 260.73 1193.28 259.76 1193.56 C258.43 1193.94 257.09 1194.3 255.75 1194.64 C254.06 1195.08 252.4 1195.6 250.74 1196.13 C250.41 1196.79 250.08 1197.45 249.74 1198.13 C244.32 1200.79 238.55 1202.57 232.74 1204.13 C231.65 1204.5 230.55 1204.88 229.43 1205.26 C226.74 1206.13 226.74 1206.13 224.74 1206.13 C222.73 1207.12 220.73 1208.12 218.74 1209.13 C212.74 1211.13 212.74 1211.13 209.74 1211.13 C209.06 1211.65 208.38 1212.16 207.68 1212.7 C203.52 1214.73 200.18 1213.94 195.74 1213.13 C195.61 1213.77 195.49 1214.41 195.36 1215.07 C195.16 1215.75 194.95 1216.43 194.74 1217.13 C191.67 1218.67 188.47 1218.24 185.11 1218.2 C184.41 1218.19 183.7 1218.19 182.97 1218.18 C181.23 1218.17 179.48 1218.15 177.74 1218.13 C177.61 1218.77 177.49 1219.41 177.36 1220.07 C177.16 1220.75 176.95 1221.43 176.74 1222.13 C174.17 1223.42 171.97 1223.46 169.11 1223.7 C168.11 1223.78 167.11 1223.86 166.07 1223.95 C165.3 1224.01 164.53 1224.07 163.74 1224.13 C163.74 1224.46 163.74 1224.79 163.74 1225.13 C162.78 1225.33 162.78 1225.33 161.8 1225.54 C160.98 1225.71 160.15 1225.89 159.3 1226.07 C158.07 1226.33 158.07 1226.33 156.8 1226.6 C154.76 1226.94 154.76 1226.94 153.74 1228.13 C151.21 1228.37 148.71 1228.55 146.18 1228.7 C145.11 1228.76 145.11 1228.76 144.02 1228.83 C142.26 1228.93 140.5 1229.03 138.74 1229.13 C138.74 1229.46 138.74 1229.79 138.74 1230.13 C130.49 1233.52 122.54 1233.82 113.74 1234.13 C113.74 1234.46 113.74 1234.79 113.74 1235.13 C108.13 1235.46 102.52 1235.79 96.74 1236.13 C96.41 1236.79 96.08 1237.45 95.74 1238.13 C94.79 1238.17 94.79 1238.17 93.83 1238.21 C90.98 1238.32 88.14 1238.45 85.3 1238.57 C84.31 1238.61 83.31 1238.65 82.29 1238.69 C81.35 1238.73 80.4 1238.77 79.43 1238.82 C78.56 1238.85 77.68 1238.89 76.78 1238.93 C74.75 1238.91 74.75 1238.91 73.74 1240.13 C72.34 1240.23 70.93 1240.26 69.52 1240.26 C68.16 1240.26 68.16 1240.26 66.77 1240.27 C65.77 1240.27 64.76 1240.26 63.73 1240.26 C62.67 1240.26 61.62 1240.27 60.54 1240.27 C57.04 1240.27 53.55 1240.27 50.05 1240.27 C47.63 1240.27 45.22 1240.27 42.8 1240.27 C37.72 1240.27 32.65 1240.27 27.58 1240.26 C21.05 1240.26 14.53 1240.26 8.01 1240.27 C3.02 1240.27 -1.98 1240.27 -6.97 1240.27 C-9.38 1240.27 -11.78 1240.27 -14.19 1240.27 C-17.54 1240.27 -20.9 1240.27 -24.25 1240.26 C-25.76 1240.27 -25.76 1240.27 -27.29 1240.27 C-28.2 1240.27 -29.11 1240.26 -30.05 1240.26 C-30.84 1240.26 -31.64 1240.26 -32.45 1240.26 C-34.26 1240.13 -34.26 1240.13 -35.26 1239.13 C-36.82 1238.98 -38.39 1238.88 -39.95 1238.82 C-40.9 1238.77 -41.84 1238.73 -42.81 1238.69 C-44.3 1238.63 -44.3 1238.63 -45.82 1238.57 C-46.82 1238.53 -47.82 1238.48 -48.85 1238.44 C-51.32 1238.33 -53.79 1238.23 -56.26 1238.13 C-56.26 1237.47 -56.26 1236.81 -56.26 1236.13 C-58.14 1236.04 -58.14 1236.04 -60.06 1235.95 C-61.71 1235.86 -63.36 1235.78 -65.01 1235.7 C-66.25 1235.64 -66.25 1235.64 -67.51 1235.58 C-68.31 1235.53 -69.11 1235.49 -69.93 1235.45 C-70.67 1235.41 -71.4 1235.38 -72.16 1235.34 C-74.28 1235.13 -76.2 1234.67 -78.26 1234.13 C-81.33 1233.87 -84.41 1233.69 -87.48 1233.51 C-90.26 1233.13 -90.26 1233.13 -93.26 1231.13 C-95.25 1230.85 -97.23 1230.57 -99.23 1230.38 C-101.26 1230.13 -101.26 1230.13 -103.22 1229.63 C-106.23 1228.9 -109.26 1228.75 -112.34 1228.51 C-113.29 1228.32 -113.29 1228.32 -114.26 1228.13 C-114.59 1227.47 -114.92 1226.81 -115.26 1226.13 C-117.39 1225.67 -117.39 1225.67 -119.82 1225.51 C-121.06 1225.4 -121.06 1225.4 -122.33 1225.28 C-122.97 1225.23 -123.6 1225.18 -124.26 1225.13 C-124.26 1224.8 -124.26 1224.47 -124.26 1224.13 C-125.26 1224.08 -125.26 1224.08 -126.27 1224.02 C-131.5 1223.63 -134.82 1223.05 -139.26 1220.13 C-140.93 1220.09 -142.6 1220.09 -144.26 1220.13 C-144.92 1219.47 -145.58 1218.81 -146.26 1218.13 C-147.4 1218.13 -148.53 1218.13 -149.7 1218.13 C-153.26 1218.13 -153.26 1218.13 -156.26 1216.13 C-158.25 1215.74 -160.25 1215.4 -162.26 1215.13 C-162.26 1214.8 -162.26 1214.47 -162.26 1214.13 C-164.9 1213.8 -167.54 1213.47 -170.26 1213.13 C-169.93 1212.14 -169.6 1211.15 -169.26 1210.13 C-170.1 1210.44 -170.1 1210.44 -170.95 1210.76 C-173.99 1211.25 -175.42 1210.33 -178.26 1209.13 C-181.24 1208.38 -184.25 1207.75 -187.26 1207.13 C-187.26 1206.8 -187.26 1206.47 -187.26 1206.13 C-188.91 1205.8 -190.56 1205.47 -192.26 1205.13 C-192.26 1204.47 -192.26 1203.81 -192.26 1203.13 C-193.13 1203.19 -193.99 1203.26 -194.89 1203.32 C-199.62 1203.06 -202.92 1201.48 -206.26 1198.13 C-206.92 1198.46 -207.58 1198.79 -208.26 1199.13 C-210.07 1198.39 -210.07 1198.39 -212.14 1197.26 C-214.85 1195.78 -217.25 1194.81 -220.26 1194.13 C-224.58 1192.51 -228.43 1190.69 -232.26 1188.13 C-232.92 1188.13 -233.58 1188.13 -234.26 1188.13 C-234.59 1187.47 -234.92 1186.81 -235.26 1186.13 C-237.26 1185.61 -239.25 1185.09 -241.27 1184.63 C-244.39 1183.85 -246.64 1182.63 -249.14 1180.63 C-251.72 1178.81 -254.27 1178.11 -257.26 1177.13 C-258.94 1176.15 -260.61 1175.15 -262.26 1174.13 C-263.92 1173.45 -265.59 1172.78 -267.26 1172.13 C-268.6 1171.48 -269.94 1170.82 -271.26 1170.13 C-271.26 1169.47 -271.26 1168.81 -271.26 1168.13 C-272.21 1168.05 -273.16 1167.97 -274.14 1167.88 C-275.17 1167.64 -276.2 1167.39 -277.26 1167.13 C-277.96 1165.82 -278.63 1164.48 -279.26 1163.13 C-281.58 1162.52 -281.58 1162.52 -284.26 1162.13 C-286.29 1161.18 -288.29 1160.18 -290.26 1159.13 C-291.9 1158.36 -291.9 1158.36 -293.57 1157.57 C-296.26 1156.13 -296.26 1156.13 -297.26 1154.13 C-298.58 1153.76 -299.92 1153.43 -301.26 1153.13 C-302.26 1152.13 -302.26 1152.13 -303.26 1150.13 C-305.29 1149.48 -305.29 1149.48 -307.26 1149.13 C-307.26 1148.47 -307.26 1147.81 -307.26 1147.13 C-307.82 1147.03 -308.38 1146.93 -308.95 1146.82 C-312.68 1145.71 -315.52 1143.87 -318.26 1141.13 C-320.33 1140.49 -320.33 1140.49 -322.26 1140.13 C-322.26 1139.14 -322.26 1138.15 -322.26 1137.13 C-323.33 1136.89 -324.41 1136.64 -325.51 1136.38 C-329.36 1135.1 -330.62 1134.05 -333.26 1131.13 C-335.39 1129.9 -335.39 1129.9 -337.26 1129.13 C-337.26 1128.47 -337.26 1127.81 -337.26 1127.13 C-338.19 1126.95 -338.19 1126.95 -339.14 1126.76 C-341.26 1126.13 -341.26 1126.13 -343.26 1124.13 C-343.88 1123.82 -344.5 1123.51 -345.14 1123.2 C-348.77 1121.38 -351.66 1118.79 -354.7 1116.13 C-356.67 1114.42 -358.44 1113.03 -360.7 1111.7 C-363.92 1109.73 -366.54 1107.28 -369.34 1104.77 C-371.51 1102.92 -373.82 1101.58 -376.26 1100.13 C-377.95 1098.49 -379.62 1096.82 -381.26 1095.13 C-384.11 1092.55 -386.55 1090.37 -390.26 1089.13 C-390.59 1088.14 -390.92 1087.15 -391.26 1086.13 C-392.63 1085.24 -394 1084.36 -395.38 1083.5 C-399.44 1080.55 -402.78 1076.72 -406.26 1073.13 C-409.71 1069.68 -413.17 1066.23 -416.63 1062.79 C-419.47 1059.96 -422.31 1057.13 -425.15 1054.3 C-426.64 1052.81 -428.14 1051.32 -429.64 1049.83 C-431.81 1047.67 -433.98 1045.51 -436.14 1043.35 C-437.15 1042.35 -437.15 1042.35 -438.17 1041.34 C-438.8 1040.71 -439.42 1040.09 -440.06 1039.45 C-440.61 1038.9 -441.16 1038.36 -441.72 1037.8 C-444.05 1035.28 -445.95 1032.69 -447.62 1029.71 C-449.56 1026.66 -451.84 1024.44 -454.45 1021.95 C-456.09 1020.38 -457.7 1018.78 -459.26 1017.13 C-459.26 1016.47 -459.26 1015.81 -459.26 1015.13 C-459.92 1015.13 -460.58 1015.13 -461.26 1015.13 C-462.24 1013.72 -463.2 1012.31 -464.11 1010.86 C-465.29 1009.1 -466.57 1007.54 -467.95 1005.95 C-470.26 1003.13 -470.26 1003.13 -471.26 1000.13 C-471.98 999.41 -472.71 998.69 -473.45 997.95 C-476.29 995.11 -478.52 992.17 -480.83 988.9 C-482.32 986.88 -482.32 986.88 -485.26 985.13 C-485.98 983.44 -486.7 981.75 -487.38 980.04 C-488.87 976.81 -491.09 974.19 -493.32 971.45 C-495.98 968.14 -498.5 965.01 -500.26 961.13 C-503.58 955.35 -507.15 949.75 -510.89 944.23 C-512.14 942.32 -513.28 940.38 -514.39 938.38 C-516.13 935.15 -516.13 935.15 -518.32 932.63 C-520.18 930.24 -521.24 928 -522.36 925.21 C-523.9 921.66 -525.85 918.33 -527.72 914.95 C-530.02 910.74 -532.14 906.44 -534.26 902.13 C-538.47 893.61 -538.47 893.61 -543.01 885.26 C-545.37 881.07 -546.92 877.07 -547.76 872.32 C-547.93 871.6 -548.09 870.88 -548.26 870.13 C-548.92 869.8 -549.58 869.47 -550.26 869.13 C-551.34 866.81 -552.32 864.51 -553.26 862.13 C-553.75 860.94 -554.23 859.75 -554.73 858.52 C-555.21 857.3 -555.7 856.08 -556.2 854.82 C-556.72 853.5 -557.25 852.19 -557.77 850.87 C-558.03 850.24 -558.28 849.6 -558.54 848.94 C-559.53 846.46 -560.52 843.99 -561.51 841.51 C-562.1 840.05 -562.68 838.59 -563.26 837.13 C-563.61 836.28 -563.95 835.43 -564.31 834.55 C-565.24 832.19 -566.09 829.86 -566.68 827.39 C-567.51 824.19 -568.58 821.08 -569.64 817.95 C-569.86 817.27 -570.09 816.6 -570.32 815.9 C-571.24 813.16 -572.16 810.41 -573.12 807.68 C-575.17 801.73 -576.74 795.67 -578.3 789.59 C-579.15 786.27 -579.15 786.27 -580.23 783.76 C-583.65 775.05 -585.06 765.48 -586.82 756.32 C-588.32 748.37 -588.32 748.37 -590.32 740.54 C-591.6 735.91 -592.2 731.26 -592.82 726.51 C-593.07 724.66 -593.33 722.81 -593.58 720.97 C-593.69 720.16 -593.79 719.35 -593.9 718.52 C-594.28 716.04 -594.76 713.59 -595.26 711.13 C-597.14 699.82 -598.56 688.55 -599.05 677.09 C-599.07 674.2 -599.07 674.2 -600.26 672.13 C-600.51 669.77 -600.69 667.44 -600.82 665.07 C-600.86 664.3 -600.9 663.52 -600.94 662.73 C-601.53 650.33 -601.41 637.91 -601.39 625.51 C-601.39 621.81 -601.39 618.11 -601.4 614.41 C-601.44 578.08 -601.44 578.08 -599.26 565.13 C-599.26 564.14 -599.26 563.15 -599.26 562.13 C-599.13 559.88 -598.98 557.63 -598.82 555.38 C-598.74 554.19 -598.66 553 -598.58 551.77 C-598.27 548.2 -597.8 544.68 -597.26 541.13 C-596.91 538.7 -596.55 536.26 -596.2 533.82 C-595.93 532 -595.93 532 -595.66 530.14 C-595.22 527.31 -595.22 527.31 -595.26 525.13 C-595.26 524.47 -595.26 523.81 -595.26 523.13 C-594.6 523.13 -593.94 523.13 -593.26 523.13 C-593.27 522.42 -593.28 521.71 -593.3 520.98 C-593.31 520.06 -593.31 519.14 -593.32 518.2 C-593.34 517.28 -593.35 516.36 -593.36 515.42 C-593.26 513.13 -593.26 513.13 -592.26 512.13 C-591.89 510.04 -591.56 507.93 -591.26 505.82 C-590.74 502.19 -590.17 498.68 -589.26 495.13 C-589.05 493.72 -588.86 492.3 -588.7 490.88 C-588.55 489.65 -588.41 488.41 -588.26 487.13 C-587.6 487.13 -586.94 487.13 -586.26 487.13 C-586.09 485.36 -585.93 483.59 -585.76 481.82 C-585.67 480.83 -585.58 479.85 -585.48 478.83 C-585.22 476.09 -585.22 476.09 -585.26 473.13 C-584.6 473.13 -583.94 473.13 -583.26 473.13 C-583.26 470.82 -583.26 468.51 -583.26 466.13 C-582.6 466.13 -581.94 466.13 -581.26 466.13 C-581.59 465.14 -581.92 464.15 -582.26 463.13 C-581.66 460.78 -581 458.44 -580.26 456.13 C-579.6 456.13 -578.94 456.13 -578.26 456.13 C-578.47 455.61 -578.67 455.09 -578.88 454.55 C-579.42 451.14 -578.45 448.71 -577.39 445.45 C-576.83 443.71 -576.83 443.71 -576.27 441.93 C-575.26 439.13 -575.26 439.13 -574.26 438.13 C-574.05 436.49 -574.05 436.49 -573.82 434.82 C-573.23 430.94 -572.14 428.63 -570.2 425.32 C-569.09 422.98 -569.09 422.98 -568.76 419.63 C-568.32 416.51 -567.82 414.79 -566.26 412.13 C-564.89 409.65 -564.09 407.52 -563.32 404.76 C-562.26 401.13 -562.26 401.13 -560.57 397.82 C-560.14 396.93 -559.71 396.05 -559.26 395.13 C-559.59 394.47 -559.92 393.81 -560.26 393.13 C-559.6 393.13 -558.94 393.13 -558.26 393.13 C-558.16 392.41 -558.06 391.69 -557.95 390.95 C-557.26 388.13 -557.26 388.13 -555.82 385.76 C-553.97 382.65 -553.24 379.61 -552.26 376.13 C-551.28 374.13 -550.28 372.12 -549.26 370.13 C-548.58 367.9 -548.58 367.9 -548.26 366.13 C-547.6 366.13 -546.94 366.13 -546.26 366.13 C-545.53 364.16 -544.87 362.15 -544.26 360.13 C-544.59 359.47 -544.92 358.81 -545.26 358.13 C-544.6 358.13 -543.94 358.13 -543.26 358.13 C-543.26 356.48 -543.26 354.83 -543.26 353.13 C-542.27 353.13 -541.28 353.13 -540.26 353.13 C-540.26 351.48 -540.26 349.83 -540.26 348.13 C-539.6 348.13 -538.94 348.13 -538.26 348.13 C-537.93 346.48 -537.6 344.83 -537.26 343.13 C-536.6 343.13 -535.94 343.13 -535.26 343.13 C-534.97 341.87 -534.68 340.62 -534.39 339.32 C-533.69 336.28 -533.06 334.83 -531.26 332.13 C-530.63 330.02 -530.63 330.02 -530.26 328.13 C-529.6 328.13 -528.94 328.13 -528.26 328.13 C-528.16 327.37 -528.06 326.61 -527.95 325.82 C-527.19 322.87 -526.39 322.17 -524.26 320.13 C-524.12 319.49 -523.97 318.85 -523.82 318.2 C-523.26 316.13 -523.26 316.13 -521.32 314.32 C-518.97 312.16 -518.97 312.16 -518.26 308.51 C-517.26 305.13 -517.26 305.13 -515.2 304.01 C-514.24 303.57 -514.24 303.57 -513.26 303.13 C-512.65 300.81 -512.65 300.81 -512.26 298.13 C-510.59 294.26 -509.81 292.5 -506.26 290.13 C-505.59 288.47 -504.92 286.8 -504.26 285.13 C-502.94 283.46 -501.61 281.79 -500.26 280.13 C-500.26 279.47 -500.26 278.81 -500.26 278.13 C-499.6 278.13 -498.94 278.13 -498.26 278.13 C-497.93 277.14 -497.6 276.15 -497.26 275.13 C-497.59 274.8 -497.92 274.47 -498.26 274.13 C-497.5 273.39 -496.74 272.65 -495.95 271.88 C-493.23 269.1 -490.94 266.62 -489.32 263.07 C-488.26 261.13 -488.26 261.13 -486.14 259.57 C-485.21 258.86 -485.21 258.86 -484.26 258.13 C-484.26 257.14 -484.26 256.15 -484.26 255.13 C-482.6 253.47 -480.93 251.8 -479.26 250.13 C-478.81 249.16 -478.35 248.19 -477.89 247.2 C-476 243.64 -473.86 241.91 -470.69 239.53 C-470.22 239.07 -469.75 238.61 -469.26 238.13 C-469.26 237.14 -469.26 236.15 -469.26 235.13 C-467.07 232.73 -464.71 230.59 -462.33 228.39 C-460.15 226.38 -460.15 226.38 -459.8 224.18 C-458.87 220.65 -455.94 218.47 -453.39 216.01 C-452.84 215.47 -452.3 214.93 -451.74 214.38 C-449.35 212.03 -447.06 210 -444.26 208.13 C-444.06 207.23 -444.06 207.23 -443.85 206.3 C-443 203.17 -441.18 201.67 -438.9 199.38 C-437.97 198.44 -437.04 197.51 -436.09 196.54 C-435.06 195.52 -434.04 194.51 -433.02 193.5 C-431.98 192.45 -430.94 191.41 -429.9 190.36 C-427.71 188.17 -425.52 185.99 -423.33 183.81 C-420.51 181.01 -417.72 178.2 -414.92 175.39 C-412.77 173.23 -410.61 171.08 -408.45 168.92 C-407.42 167.89 -406.39 166.86 -405.36 165.82 C-403.92 164.37 -402.47 162.93 -401.01 161.5 C-400.19 160.68 -399.37 159.86 -398.52 159.01 C-396.27 157.14 -395.06 156.64 -392.26 156.13 C-390.52 154.53 -390.52 154.53 -388.95 152.51 C-386.56 149.66 -384.16 146.87 -381.57 144.2 C-381.03 143.63 -380.49 143.06 -379.94 142.48 C-378.26 141.13 -378.26 141.13 -376.3 140.69 C-373.45 139.91 -372.24 138.3 -370.26 136.13 C-367.56 133.18 -366.09 132.05 -362.26 131.13 C-360.71 129.62 -360.71 129.62 -359.39 127.76 C-356.68 124.4 -354.19 122.97 -350.26 121.13 C-349.4 120.27 -348.53 119.4 -347.64 118.51 C-345.18 116.05 -344.43 115.87 -341.26 115.13 C-340.52 114.14 -340.52 114.14 -339.76 113.13 C-338.26 111.13 -338.26 111.13 -336.37 110.73 C-333.65 109.96 -332.76 108.76 -331.01 106.57 C-330.49 105.93 -329.97 105.29 -329.43 104.63 C-328.85 103.89 -328.85 103.89 -328.26 103.13 C-327.93 103.79 -327.6 104.45 -327.26 105.13 C-326.93 104.47 -326.6 103.81 -326.26 103.13 C-325.27 103.13 -324.28 103.13 -323.26 103.13 C-323.26 102.47 -323.26 101.81 -323.26 101.13 C-322.12 100.73 -322.12 100.73 -320.95 100.32 C-318.27 99.33 -318.27 99.33 -316.7 97.57 C-314.96 95.83 -313.61 95.68 -311.26 95.13 C-310.93 94.47 -310.6 93.81 -310.26 93.13 C-309.6 93.13 -308.94 93.13 -308.26 93.13 C-308.26 92.47 -308.26 91.81 -308.26 91.13 C-306.61 91.13 -304.96 91.13 -303.26 91.13 C-303.26 90.14 -303.26 89.15 -303.26 88.13 C-301.61 88.13 -299.96 88.13 -298.26 88.13 C-297.95 87.17 -297.95 87.17 -297.64 86.2 C-296.26 84.13 -296.26 84.13 -293.14 83.38 C-292.19 83.3 -291.24 83.22 -290.26 83.13 C-290.26 82.47 -290.26 81.81 -290.26 81.13 C-289.62 81.01 -288.98 80.89 -288.32 80.76 C-287.64 80.55 -286.96 80.35 -286.26 80.13 C-285.93 79.47 -285.6 78.81 -285.26 78.13 C-283.6 77.46 -281.93 76.79 -280.26 76.13 C-279.56 75.6 -278.86 75.06 -278.14 74.51 C-276.26 73.13 -276.26 73.13 -273.26 73.13 C-273.26 72.47 -273.26 71.81 -273.26 71.13 C-271.61 71.13 -269.96 71.13 -268.26 71.13 C-267.93 70.47 -267.6 69.81 -267.26 69.13 C-265.2 68.51 -265.2 68.51 -263.26 68.13 C-263.26 67.47 -263.26 66.81 -263.26 66.13 C-261.61 66.13 -259.96 66.13 -258.26 66.13 C-257.93 65.47 -257.6 64.81 -257.26 64.13 C-253.85 61.74 -252.56 61.13 -248.26 61.13 C-247.93 60.47 -247.6 59.81 -247.26 59.13 C-245.93 58.8 -244.6 58.47 -243.26 58.13 C-242.93 57.47 -242.6 56.81 -242.26 56.13 C-241.6 56.13 -240.94 56.13 -240.26 56.13 C-238.59 55.81 -236.92 55.48 -235.26 55.13 C-235.26 54.47 -235.26 53.81 -235.26 53.13 C-233.61 53.13 -231.96 53.13 -230.26 53.13 C-230.26 52.47 -230.26 51.81 -230.26 51.13 C-226.64 49.64 -222.99 48.35 -219.26 47.13 C-219.26 46.8 -219.26 46.47 -219.26 46.13 C-218.46 46.01 -217.65 45.89 -216.82 45.76 C-215.98 45.55 -215.13 45.35 -214.26 45.13 C-213.93 44.47 -213.6 43.81 -213.26 43.13 C-211.61 43.13 -209.96 43.13 -208.26 43.13 C-207.93 42.47 -207.6 41.81 -207.26 41.13 C-206.6 41.13 -205.94 41.13 -205.26 41.13 C-204.35 40.64 -203.45 40.14 -202.51 39.63 C-199.09 38.05 -196.98 37.87 -193.26 38.13 C-193.26 37.47 -193.26 36.81 -193.26 36.13 C-192.27 35.86 -191.28 35.6 -190.26 35.32 C-183.81 33.48 -177.26 31.13 -171.26 28.13 C-170.93 28.46 -170.6 28.79 -170.26 29.13 C-169.66 28.82 -169.07 28.51 -168.45 28.2 C-166.26 27.13 -166.26 27.13 -163.26 26.13 C-162.58 25.88 -161.91 25.64 -161.21 25.38 C-156.74 23.78 -153.08 22.76 -148.26 23.13 C-148.26 22.47 -148.26 21.81 -148.26 21.13 C-147.6 21.46 -146.94 21.79 -146.26 22.13 C-145.93 21.8 -145.6 21.47 -145.26 21.13 C-139.46 18.68 -134.53 17.79 -128.26 18.13 C-128.26 17.47 -128.26 16.81 -128.26 16.13 C-126.49 15.77 -124.72 15.42 -122.95 15.07 C-121.47 14.77 -121.47 14.77 -119.96 14.47 C-117.26 14.13 -117.26 14.13 -114.26 15.13 C-114.26 14.47 -114.26 13.81 -114.26 13.13 C-112.8 12.94 -111.35 12.75 -109.89 12.57 C-109.07 12.47 -108.26 12.36 -107.43 12.25 C-105.26 12.13 -105.26 12.13 -103.26 13.13 C-103.26 12.47 -103.26 11.81 -103.26 11.13 C-102.43 11 -101.6 10.87 -100.74 10.73 C-99.11 10.47 -99.11 10.47 -97.45 10.2 C-96.37 10.02 -95.29 9.85 -94.18 9.67 C-91.21 9.19 -91.21 9.19 -88.26 8.13 C-86.53 8.06 -84.8 8.05 -83.07 8.07 C-82.17 8.08 -81.27 8.09 -80.34 8.1 C-79.66 8.11 -78.97 8.12 -78.26 8.13 C-77.93 7.47 -77.6 6.81 -77.26 6.13 C-77.26 6.79 -77.26 7.45 -77.26 8.13 C-75.78 7.14 -75.78 7.14 -74.26 6.13 C-71.84 5.7 -69.4 5.36 -66.95 5.07 C-61.67 4.45 -61.67 4.45 -56.42 3.61 C-51.07 2.8 -45.66 2.73 -40.25 2.53 C-39.39 2.49 -38.52 2.45 -37.62 2.41 C-36.44 2.37 -36.44 2.37 -35.23 2.32 C-33.19 2.24 -33.19 2.24 -31.26 1.13 C-28.87 0.9 -26.49 0.71 -24.09 0.58 C-23.37 0.54 -22.66 0.49 -21.92 0.45 C-14.61 0.05 -7.32 -0.01 0 0 Z M533.74 275.13 C534.74 277.13 534.74 277.13 534.74 277.13 Z M-504.26 286.13 C-503.26 288.13 -503.26 288.13 -503.26 288.13 Z M-527.26 324.13 C-526.26 326.13 -526.26 326.13 -526.26 326.13 Z M-542.26 354.13 C-541.26 356.13 -541.26 356.13 -541.26 356.13 Z M586.74 372.13 C587.74 374.13 587.74 374.13 587.74 374.13 Z M621.74 475.13 C622.74 477.13 622.74 477.13 622.74 477.13 Z M634.74 673.13 C635.74 675.13 635.74 675.13 635.74 675.13 Z M633.74 698.13 C634.74 700.13 634.74 700.13 634.74 700.13 Z M629.74 715.13 C630.74 717.13 630.74 717.13 630.74 717.13 Z M624.74 743.13 C625.74 745.13 625.74 745.13 625.74 745.13 Z M623.74 755.13 C624.74 757.13 624.74 757.13 624.74 757.13 Z M619.74 765.13 C620.74 767.13 620.74 767.13 620.74 767.13 Z M621.74 765.13 C622.74 767.13 622.74 767.13 622.74 767.13 Z M614.74 785.13 C615.74 787.13 615.74 787.13 615.74 787.13 Z M612.74 793.13 C612.41 794.12 612.08 795.11 611.74 796.13 C612.73 795.8 613.72 795.47 614.74 795.13 C614.74 794.47 614.74 793.81 614.74 793.13 C614.08 793.13 613.42 793.13 612.74 793.13 Z M609.74 803.13 C610.74 805.13 610.74 805.13 610.74 805.13 Z M604.74 818.13 C605.74 820.13 605.74 820.13 605.74 820.13 Z M601.74 826.13 C602.74 828.13 602.74 828.13 602.74 828.13 Z M599.74 830.13 C600.74 832.13 600.74 832.13 600.74 832.13 Z M601.74 830.13 C602.74 832.13 602.74 832.13 602.74 832.13 Z M598.74 838.13 C599.74 840.13 599.74 840.13 599.74 840.13 Z M583.74 873.13 C584.74 875.13 584.74 875.13 584.74 875.13 Z M576.74 886.13 C577.74 888.13 577.74 888.13 577.74 888.13 Z M571.74 896.13 C572.74 898.13 572.74 898.13 572.74 898.13 Z M571.74 900.13 C572.74 902.13 572.74 902.13 572.74 902.13 Z M561.74 916.13 C562.74 918.13 562.74 918.13 562.74 918.13 Z M558.74 923.13 C559.74 925.13 559.74 925.13 559.74 925.13 Z M551.74 933.13 C551.74 934.12 551.74 935.11 551.74 936.13 C552.73 935.8 553.72 935.47 554.74 935.13 C554.74 934.47 554.74 933.81 554.74 933.13 C553.75 933.13 552.76 933.13 551.74 933.13 Z M543.74 946.13 C544.74 948.13 544.74 948.13 544.74 948.13 Z M541.74 949.13 C542.74 951.13 542.74 951.13 542.74 951.13 Z M536.74 960.13 C537.74 962.13 537.74 962.13 537.74 962.13 Z M531.74 965.13 C531.74 966.12 531.74 967.11 531.74 968.13 C532.73 967.8 533.72 967.47 534.74 967.13 C534.74 966.47 534.74 965.81 534.74 965.13 C533.75 965.13 532.76 965.13 531.74 965.13 Z M523.74 976.13 C524.74 978.13 524.74 978.13 524.74 978.13 Z M514.74 988.13 C515.4 988.79 516.06 989.45 516.74 990.13 C516.74 989.47 516.74 988.81 516.74 988.13 C516.08 988.13 515.42 988.13 514.74 988.13 Z M500.74 1008.13 C501.07 1008.79 501.4 1009.45 501.74 1010.13 C502.07 1009.47 502.4 1008.81 502.74 1008.13 C502.08 1008.13 501.42 1008.13 500.74 1008.13 Z M417.74 1093.13 C418.4 1093.79 419.06 1094.45 419.74 1095.13 C419.74 1094.47 419.74 1093.81 419.74 1093.13 C419.08 1093.13 418.42 1093.13 417.74 1093.13 Z M404.74 1103.13 C403.75 1104.62 403.75 1104.62 402.74 1106.13 C403.73 1106.13 404.72 1106.13 405.74 1106.13 C406.4 1105.14 407.06 1104.15 407.74 1103.13 C406.75 1103.13 405.76 1103.13 404.74 1103.13 Z M391.74 1113.13 C391.74 1114.12 391.74 1115.11 391.74 1116.13 C392.73 1115.14 393.72 1114.15 394.74 1113.13 C393.75 1113.13 392.76 1113.13 391.74 1113.13 Z M333.74 1153.13 C332.75 1154.62 332.75 1154.62 331.74 1156.13 C332.73 1155.8 333.72 1155.47 334.74 1155.13 C334.41 1154.47 334.08 1153.81 333.74 1153.13 Z M-185.26 1205.13 C-184.26 1207.13 -184.26 1207.13 -184.26 1207.13 Z M167.74 1221.13 C167.74 1221.46 167.74 1221.79 167.74 1222.13 C169.72 1222.13 171.7 1222.13 173.74 1222.13 C173.74 1221.8 173.74 1221.47 173.74 1221.13 C171.76 1221.13 169.78 1221.13 167.74 1221.13 Z M-111.26 1226.13 C-111.26 1226.46 -111.26 1226.79 -111.26 1227.13 C-109.61 1227.13 -107.96 1227.13 -106.26 1227.13 C-106.26 1226.8 -106.26 1226.47 -106.26 1226.13 C-107.91 1226.13 -109.56 1226.13 -111.26 1226.13 Z M146.74 1226.13 C150.74 1227.13 150.74 1227.13 150.74 1227.13 Z M-86.26 1231.13 C-86.26 1231.46 -86.26 1231.79 -86.26 1232.13 C-83.62 1232.13 -80.98 1232.13 -78.26 1232.13 C-78.26 1231.8 -78.26 1231.47 -78.26 1231.13 C-80.9 1231.13 -83.54 1231.13 -86.26 1231.13 Z M117.74 1231.13 C117.74 1231.46 117.74 1231.79 117.74 1232.13 C120.71 1232.13 123.68 1232.13 126.74 1232.13 C126.74 1231.8 126.74 1231.47 126.74 1231.13 C123.77 1231.13 120.8 1231.13 117.74 1231.13 Z M-52.26 1236.13 C-52.26 1236.46 -52.26 1236.79 -52.26 1237.13 C-49.29 1237.13 -46.32 1237.13 -43.26 1237.13 C-43.26 1236.8 -43.26 1236.47 -43.26 1236.13 C-46.23 1236.13 -49.2 1236.13 -52.26 1236.13 Z M78.74 1236.13 C78.74 1236.46 78.74 1236.79 78.74 1237.13 C84.02 1237.13 89.3 1237.13 94.74 1237.13 C94.74 1236.8 94.74 1236.47 94.74 1236.13 C89.46 1236.13 84.18 1236.13 78.74 1236.13 Z M-34.26 1238.13 C-34.26 1238.46 -34.26 1238.79 -34.26 1239.13 C-27.99 1239.13 -21.72 1239.13 -15.26 1239.13 C-15.26 1238.8 -15.26 1238.47 -15.26 1238.13 C-21.53 1238.13 -27.8 1238.13 -34.26 1238.13 Z M46.74 1238.13 C46.74 1238.46 46.74 1238.79 46.74 1239.13 C55.65 1239.13 64.56 1239.13 73.74 1239.13 C73.74 1238.8 73.74 1238.47 73.74 1238.13 C64.83 1238.13 55.92 1238.13 46.74 1238.13 Z " fill="#E5ECFD" transform="translate(620.26171875,18.8671875)"/>
<path d="M0 0 C1.13 0.1 2.25 0.19 3.41 0.29 C87.11 7.48 169.06 32.18 243 72 C244.22 72.65 244.22 72.65 245.47 73.32 C257.26 79.62 268.65 86.37 279.87 93.63 C281.81 94.88 283.75 96.11 285.7 97.34 C324.66 121.9 359.11 152.06 391.62 184.5 C392.24 185.11 392.85 185.72 393.48 186.34 C399.87 192.72 406.18 199.09 412 206 C413.07 207.23 414.14 208.45 415.21 209.68 C421.6 217.02 427.9 224.41 434 232 C434.73 232.91 435.47 233.82 436.22 234.76 C438.16 237.17 440.09 239.57 442 242 C442.55 242.69 443.1 243.39 443.67 244.1 C445.55 246.78 445.93 248.73 446 252 C444.19 254.87 444.19 254.87 442 257 C441.34 257 440.68 257 440 257 C439.67 257.99 439.34 258.98 439 260 C438.01 260 437.02 260 436 260 C436.23 260.59 436.47 261.17 436.71 261.77 C437 264 437 264 435.6 265.85 C434.95 266.44 434.3 267.02 433.62 267.62 C430.93 270.02 430.93 270.02 429 273 C428.01 273 427.02 273 426 273 C426.33 273.99 426.66 274.98 427 276 C426.04 276.94 426.04 276.94 425.07 277.9 C424.24 278.72 423.41 279.53 422.56 280.38 C421.74 281.19 420.92 282 420.07 282.84 C417.97 284.82 417.97 284.82 417 287 C416.34 287 415.68 287 415 287 C414.67 287.99 414.34 288.98 414 290 C413.01 290 412.02 290 411 290 C411.38 290.84 411.38 290.84 411.76 291.7 C412 294 412 294 410.32 296.31 C409.48 297.16 408.64 298 407.77 298.88 C407.31 299.35 406.85 299.82 406.37 300.3 C404.84 301.86 403.29 303.39 401.74 304.93 C400.67 306 399.6 307.07 398.53 308.14 C396.29 310.39 394.04 312.63 391.79 314.86 C388.89 317.73 386.02 320.62 383.16 323.51 C380.95 325.73 378.74 327.94 376.52 330.15 C375.46 331.21 374.4 332.27 373.34 333.34 C371.87 334.83 370.37 336.3 368.88 337.77 C368.03 338.61 367.18 339.46 366.31 340.32 C364 342 364 342 361.7 341.76 C361.14 341.51 360.58 341.26 360 341 C359.67 341.99 359.34 342.98 359 344 C357.36 345.69 355.69 347.35 354 349 C353.3 349.91 352.6 350.82 351.88 351.75 C350 354 350 354 347 355 C346.67 354.67 346.34 354.34 346 354 C345.36 354.76 345.36 354.76 344.71 355.54 C334.27 367.8 334.27 367.8 327 370 C327 370.66 327 371.32 327 372 C325.61 372.95 324.21 373.89 322.79 374.78 C320.18 376.56 317.97 378.73 315.71 380.93 C314 382 314 382 311.79 381.67 C311.2 381.45 310.61 381.23 310 381 C309.88 381.93 309.88 381.93 309.75 382.88 C309 385 309 385 307.12 386.31 C305 387 305 387 302 386 C301.85 386.93 301.85 386.93 301.69 387.88 C301 390 301 390 298 392 C296.98 392.49 296.98 392.49 295.94 393 C293.84 393.96 293.84 393.96 292 396 C289.38 396.12 289.38 396.12 287 396 C286.85 396.9 286.85 396.9 286.69 397.81 C285.89 400.36 285.14 401.42 283 403 C281.68 403 280.36 403 279 403 C278.67 403.99 278.34 404.98 278 406 C277.01 406.33 276.02 406.66 275 407 C275 407.33 275 407.66 275 408 C274.2 408.12 273.39 408.25 272.56 408.38 C271.29 408.68 271.29 408.68 270 409 C269.67 409.66 269.34 410.32 269 411 C264.06 415.05 259.35 417.94 253 419 C253 419.66 253 420.32 253 421 C251.93 421.08 250.86 421.16 249.75 421.25 C245.58 422.08 244.84 423.07 242 426 C239.25 426.25 239.25 426.25 237 426 C236.94 426.93 236.94 426.93 236.88 427.88 C236.59 428.58 236.3 429.28 236 430 C232.94 431.25 232.94 431.25 230 432 C230 432.33 230 432.66 230 433 C228.35 433.33 226.7 433.66 225 434 C225 434.66 225 435.32 225 436 C222.36 436 219.72 436 217 436 C216.34 437.65 215.68 439.3 215 441 C212.36 441 209.72 441 207 441 C207.33 441.99 207.66 442.98 208 444 C206.35 443.67 204.7 443.34 203 443 C203.33 443.99 203.66 444.98 204 446 C198.38 447.12 198.38 447.12 195 446 C194.67 447.32 194.34 448.64 194 450 C192.48 450.43 192.48 450.43 190.94 450.88 C190.3 451.06 189.67 451.24 189.02 451.43 C187.69 451.81 186.35 452.17 185.01 452.51 C183.33 452.95 181.66 453.47 180 454 C179.67 454.66 179.34 455.32 179 456 C173.59 458.66 167.81 460.44 162 462 C160.91 462.37 159.81 462.74 158.69 463.12 C156 464 156 464 154 464 C151.99 464.98 149.99 465.98 148 467 C142 469 142 469 139 469 C138.32 469.52 137.64 470.03 136.94 470.56 C132.78 472.6 129.44 471.8 125 471 C124.81 471.96 124.81 471.96 124.62 472.94 C124.42 473.62 124.21 474.3 124 475 C120.93 476.53 117.73 476.1 114.38 476.06 C113.67 476.06 112.96 476.05 112.23 476.05 C110.49 476.04 108.74 476.02 107 476 C106.81 476.96 106.81 476.96 106.62 477.94 C106.42 478.62 106.21 479.3 106 480 C103.43 481.28 101.23 481.33 98.38 481.56 C96.87 481.69 96.87 481.69 95.34 481.82 C94.57 481.88 93.79 481.94 93 482 C93 482.33 93 482.66 93 483 C92.36 483.13 91.72 483.27 91.07 483.4 C90.24 483.58 89.41 483.76 88.56 483.94 C87.74 484.11 86.92 484.29 86.07 484.46 C84.02 484.81 84.02 484.81 83 486 C80.47 486.24 77.97 486.42 75.44 486.56 C74.73 486.61 74.02 486.65 73.28 486.69 C71.52 486.8 69.76 486.9 68 487 C68 487.33 68 487.66 68 488 C59.75 491.39 51.8 491.69 43 492 C43 492.33 43 492.66 43 493 C37.39 493.33 31.78 493.66 26 494 C25.67 494.66 25.34 495.32 25 496 C24.37 496.03 23.74 496.05 23.09 496.08 C20.25 496.19 17.4 496.31 14.56 496.44 C13.57 496.48 12.58 496.52 11.55 496.56 C10.61 496.6 9.66 496.64 8.69 496.68 C7.82 496.72 6.94 496.76 6.04 496.79 C4.01 496.78 4.01 496.78 3 498 C1.6 498.1 0.19 498.13 -1.21 498.13 C-2.58 498.13 -2.58 498.13 -3.97 498.14 C-5.47 498.13 -5.47 498.13 -7.01 498.13 C-8.06 498.13 -9.12 498.13 -10.2 498.13 C-13.7 498.14 -17.19 498.14 -20.69 498.13 C-23.11 498.13 -25.52 498.13 -27.94 498.14 C-33.01 498.14 -38.09 498.14 -43.16 498.13 C-49.68 498.12 -56.2 498.13 -62.73 498.13 C-67.72 498.14 -72.71 498.14 -77.71 498.13 C-80.11 498.13 -82.52 498.13 -84.92 498.14 C-88.28 498.14 -91.63 498.13 -94.99 498.13 C-95.99 498.13 -97 498.13 -98.03 498.14 C-98.94 498.13 -99.85 498.13 -100.79 498.13 C-101.58 498.13 -102.37 498.13 -103.19 498.13 C-105 498 -105 498 -106 497 C-107.56 496.84 -109.13 496.75 -110.69 496.68 C-111.64 496.64 -112.58 496.6 -113.55 496.56 C-115.04 496.5 -115.04 496.5 -116.56 496.44 C-117.56 496.39 -118.56 496.35 -119.58 496.31 C-122.06 496.2 -124.53 496.1 -127 496 C-127 495.34 -127 494.68 -127 494 C-128.25 493.94 -129.51 493.88 -130.8 493.82 C-132.45 493.73 -134.1 493.65 -135.75 493.56 C-136.99 493.5 -136.99 493.5 -138.25 493.44 C-139.05 493.4 -139.85 493.36 -140.67 493.32 C-141.41 493.28 -142.14 493.24 -142.89 493.21 C-145.02 493 -146.94 492.53 -149 492 C-152.07 491.74 -155.14 491.56 -158.22 491.38 C-161 491 -161 491 -164 489 C-165.98 488.72 -167.97 488.43 -169.96 488.25 C-172 488 -172 488 -173.96 487.5 C-176.97 486.76 -180 486.62 -183.07 486.38 C-183.71 486.25 -184.35 486.13 -185 486 C-185.33 485.34 -185.66 484.68 -186 484 C-188.13 483.53 -188.13 483.53 -190.56 483.38 C-191.39 483.3 -192.22 483.23 -193.07 483.15 C-193.7 483.1 -194.34 483.05 -195 483 C-195 482.67 -195 482.34 -195 482 C-195.66 481.96 -196.33 481.93 -197.01 481.89 C-202.24 481.5 -205.56 480.92 -210 478 C-211.67 477.96 -213.33 477.95 -215 478 C-215.66 477.34 -216.32 476.68 -217 476 C-218.13 476 -219.27 476 -220.44 476 C-224 476 -224 476 -227 474 C-228.99 473.61 -230.99 473.27 -233 473 C-233 472.67 -233 472.34 -233 472 C-235.64 471.67 -238.28 471.34 -241 471 C-240.67 470.01 -240.34 469.02 -240 468 C-240.56 468.21 -241.11 468.41 -241.69 468.62 C-244.73 469.12 -246.16 468.2 -249 467 C-251.98 466.25 -254.99 465.62 -258 465 C-258 464.67 -258 464.34 -258 464 C-259.65 463.67 -261.3 463.34 -263 463 C-263 462.34 -263 461.68 -263 461 C-264.3 461.09 -264.3 461.09 -265.62 461.19 C-270.36 460.92 -273.65 459.35 -277 456 C-277.66 456.33 -278.32 456.66 -279 457 C-280.8 456.26 -280.8 456.26 -282.88 455.12 C-285.59 453.65 -287.99 452.68 -291 452 C-295.31 450.38 -299.16 448.56 -303 446 C-303.66 446 -304.32 446 -305 446 C-305.33 445.34 -305.66 444.68 -306 444 C-308 443.48 -309.99 442.96 -312 442.5 C-315.13 441.72 -317.37 440.5 -319.88 438.5 C-322.45 436.68 -325.01 435.98 -328 435 C-329.68 434.02 -331.34 433.02 -333 432 C-334.66 431.31 -336.32 430.64 -338 430 C-339.34 429.35 -340.68 428.69 -342 428 C-342 427.34 -342 426.68 -342 426 C-342.95 425.92 -343.9 425.84 -344.88 425.75 C-346.42 425.38 -346.42 425.38 -348 425 C-348.7 423.68 -349.37 422.35 -350 421 C-352.32 420.39 -352.32 420.39 -355 420 C-357.03 419.05 -359.02 418.05 -361 417 C-362.09 416.48 -363.19 415.97 -364.31 415.44 C-367 414 -367 414 -368 412 C-369.32 411.63 -370.66 411.29 -372 411 C-373 410 -373 410 -374 408 C-376.02 407.35 -376.02 407.35 -378 407 C-378 406.34 -378 405.68 -378 405 C-378.56 404.9 -379.11 404.79 -379.69 404.69 C-383.41 403.58 -386.26 401.74 -389 399 C-391.07 398.36 -391.07 398.36 -393 398 C-393 397.01 -393 396.02 -393 395 C-394.07 394.75 -395.14 394.51 -396.25 394.25 C-400.1 392.97 -401.36 391.92 -404 389 C-406.13 387.76 -406.13 387.76 -408 387 C-408 386.34 -408 385.68 -408 385 C-408.62 384.88 -409.24 384.75 -409.88 384.62 C-412 384 -412 384 -414 382 C-414.62 381.69 -415.24 381.38 -415.88 381.06 C-419.51 379.25 -422.4 376.66 -425.44 374 C-427.41 372.29 -429.18 370.89 -431.44 369.56 C-434.66 367.6 -437.28 365.15 -440.08 362.63 C-442.25 360.79 -444.56 359.45 -447 358 C-448.69 356.36 -450.35 354.69 -452 353 C-454.85 350.42 -457.29 348.24 -461 347 C-461.5 345.51 -461.5 345.51 -462 344 C-463.37 343.11 -464.74 342.23 -466.12 341.36 C-470.18 338.42 -473.52 334.59 -477 331 C-480.45 327.54 -483.91 324.1 -487.37 320.66 C-490.21 317.83 -493.05 315 -495.88 312.17 C-497.38 310.68 -498.88 309.19 -500.38 307.7 C-502.55 305.54 -504.72 303.38 -506.88 301.21 C-507.55 300.55 -508.22 299.89 -508.91 299.2 C-509.53 298.58 -510.16 297.96 -510.8 297.31 C-511.62 296.5 -511.62 296.5 -512.46 295.66 C-514.79 293.15 -516.69 290.56 -518.36 287.57 C-520.3 284.53 -522.58 282.3 -525.19 279.81 C-526.83 278.25 -528.44 276.65 -530 275 C-530 274.34 -530 273.68 -530 273 C-530.66 273 -531.32 273 -532 273 C-532.97 271.59 -533.94 270.17 -534.85 268.72 C-536.02 266.96 -537.3 265.41 -538.69 263.81 C-541 261 -541 261 -542 258 C-542.74 257.3 -543.49 256.6 -544.25 255.88 C-548.17 251.78 -550.48 247.03 -553 242 C-551.02 242.66 -549.04 243.32 -547 244 C-546.33 243.14 -545.67 242.28 -544.98 241.39 C-539.78 234.71 -534.5 228.13 -528.99 221.7 C-526.06 218.26 -523.2 214.78 -520.38 211.25 C-516.93 207.01 -513.28 203.14 -509.34 199.36 C-507.45 197.45 -505.72 195.52 -503.97 193.48 C-499.44 188.26 -494.55 183.4 -489.66 178.53 C-488.07 176.94 -486.48 175.35 -484.89 173.76 C-479.43 168.29 -473.87 163.02 -468 158 C-466.22 156.38 -464.45 154.76 -462.69 153.12 C-458.15 148.99 -453.5 145.05 -448.72 141.2 C-446.98 139.79 -445.25 138.37 -443.53 136.93 C-430.29 125.86 -416.08 115.96 -402 106 C-400.6 105 -400.6 105 -399.16 103.97 C-398.31 103.36 -397.45 102.75 -396.56 102.12 C-395.48 101.36 -395.48 101.36 -394.38 100.57 C-391.92 98.95 -389.38 97.5 -386.82 96.05 C-383.89 94.36 -381.08 92.48 -378.25 90.62 C-373.14 87.3 -367.96 84.25 -362.57 81.39 C-360.05 80.03 -357.62 78.57 -355.19 77.06 C-349.61 73.68 -343.8 70.82 -337.95 67.96 C-334.44 66.23 -330.94 64.49 -327.44 62.75 C-326.77 62.42 -326.1 62.09 -325.42 61.75 C-322.76 60.43 -320.17 59.11 -317.66 57.52 C-314.49 55.71 -311.24 54.45 -307.85 53.12 C-304.84 51.94 -301.86 50.68 -298.88 49.41 C-236.92 23.13 -172.09 6.28 -105.02 0.18 C-103.09 0.01 -101.16 -0.17 -99.24 -0.35 C-66.34 -3.36 -32.88 -3.07 0 0 Z M430 266 C430.33 266.66 430.66 267.32 431 268 C431.33 267.34 431.66 266.68 432 266 C431.34 266 430.68 266 430 266 Z M347 351 C347.66 351.66 348.32 352.32 349 353 C349 352.34 349 351.68 349 351 C348.34 351 347.68 351 347 351 Z M334 361 C333.01 362.49 333.01 362.49 332 364 C332.99 364 333.98 364 335 364 C335.66 363.01 336.32 362.02 337 361 C336.01 361 335.02 361 334 361 Z M321 371 C321 371.99 321 372.98 321 374 C321.99 373.01 322.98 372.02 324 371 C323.01 371 322.02 371 321 371 Z M263 411 C262.01 412.49 262.01 412.49 261 414 C261.99 413.67 262.98 413.34 264 413 C263.67 412.34 263.34 411.68 263 411 Z M-256 463 C-255 465 -255 465 -255 465 Z M97 479 C97 479.33 97 479.66 97 480 C98.98 480 100.96 480 103 480 C103 479.67 103 479.34 103 479 C101.02 479 99.04 479 97 479 Z M-182 484 C-182 484.33 -182 484.66 -182 485 C-180.35 485 -178.7 485 -177 485 C-177 484.67 -177 484.34 -177 484 C-178.65 484 -180.3 484 -182 484 Z M76 484 C80 485 80 485 80 485 Z M-157 489 C-157 489.33 -157 489.66 -157 490 C-154.36 490 -151.72 490 -149 490 C-149 489.67 -149 489.34 -149 489 C-151.64 489 -154.28 489 -157 489 Z M47 489 C47 489.33 47 489.66 47 490 C49.97 490 52.94 490 56 490 C56 489.67 56 489.34 56 489 C53.03 489 50.06 489 47 489 Z M-123 494 C-123 494.33 -123 494.66 -123 495 C-120.03 495 -117.06 495 -114 495 C-114 494.67 -114 494.34 -114 494 C-116.97 494 -119.94 494 -123 494 Z M8 494 C8 494.33 8 494.66 8 495 C13.28 495 18.56 495 24 495 C24 494.67 24 494.34 24 494 C18.72 494 13.44 494 8 494 Z M-105 496 C-105 496.33 -105 496.66 -105 497 C-98.73 497 -92.46 497 -86 497 C-86 496.67 -86 496.34 -86 496 C-92.27 496 -98.54 496 -105 496 Z M-24 496 C-24 496.33 -24 496.66 -24 497 C-15.09 497 -6.18 497 3 497 C3 496.67 3 496.34 3 496 C-5.91 496 -14.82 496 -24 496 Z " fill="#3E93FE" transform="translate(691,761)"/>
<path d="M0 0 C0.68 0.33 1.36 0.67 2.07 1.01 C26.49 13.15 46.94 29.74 66.25 48.88 C66.75 49.37 67.25 49.86 67.76 50.37 C76.36 58.94 83.84 67.98 90.66 78.04 C91.94 79.92 93.27 81.76 94.62 83.59 C96.6 86.36 98.34 89.22 100 92.2 C101.04 94.08 102.13 95.93 103.23 97.78 C116.38 120.39 125.03 144.8 130.31 170.38 C130.46 171.09 130.61 171.8 130.76 172.53 C133.55 187.13 134.38 201.79 134.31 216.62 C134.31 217.45 134.31 218.27 134.31 219.12 C134.16 255.18 126.39 289.69 110.94 322.31 C110.46 323.33 109.97 324.35 109.48 325.4 C106.62 331.23 103.44 336.53 99.58 341.75 C97.53 344.67 95.87 347.73 94.24 350.89 C92.72 353.48 90.9 355.68 89 358 C88.25 358.99 87.5 359.97 86.73 360.99 C68.17 385.36 44.81 407.89 18 423 C17.3 423.39 16.61 423.79 15.89 424.19 C13.64 425.47 11.38 426.74 9.12 428 C8.37 428.43 7.62 428.85 6.85 429.29 C1.68 432.18 -3.56 434.68 -9 437 C-10.66 437.72 -10.66 437.72 -12.35 438.46 C-41.7 450.61 -72.37 456.46 -104.06 456.31 C-104.91 456.31 -105.76 456.31 -106.64 456.31 C-142.7 456.16 -177.73 448.45 -210.38 432.94 C-211.39 432.46 -212.41 431.97 -213.45 431.48 C-219.26 428.62 -224.51 425.4 -229.75 421.6 C-231.68 420.23 -233.6 419.03 -235.67 417.89 C-239.41 415.77 -242.8 413.37 -246.25 410.81 C-246.84 410.38 -247.43 409.95 -248.04 409.51 C-258.91 401.5 -268.78 392.66 -278.31 383.12 C-278.91 382.53 -279.5 381.94 -280.11 381.33 C-289.82 371.58 -298.56 361.62 -306 350 C-306.52 349.21 -307.03 348.41 -307.56 347.59 C-342.02 293.94 -353.76 229.24 -340.94 166.81 C-330.6 120.44 -308.03 79.95 -275 46 C-273.77 44.71 -273.77 44.71 -272.51 43.39 C-258.48 28.94 -241.31 17.17 -224 7 C-223.13 6.47 -222.25 5.93 -221.35 5.38 C-218.93 3.96 -216.45 2.88 -213.86 1.81 C-212.02 1.01 -210.23 0.09 -208.45 -0.83 C-144.3 -33.05 -63.98 -31.55 0 0 Z " fill="#3E93FF" transform="translate(745,223)"/>
<path d="M0 0 C0.66 0.66 1.32 1.32 2 2 C2.66 2.33 3.32 2.66 4 3 C3.36 3.64 2.71 4.29 2.05 4.95 C-1.09 8.09 -4.22 11.24 -7.36 14.38 C-10.81 17.85 -14.26 21.31 -17.71 24.77 C-19.53 26.59 -21.34 28.41 -23.16 30.23 C-25.79 32.88 -28.42 35.52 -31.06 38.16 C-31.87 38.97 -32.67 39.78 -33.5 40.62 C-37.52 44.63 -41.56 48.46 -46 52 C-46 51.01 -46 50.02 -46 49 C-46.66 48.67 -47.32 48.34 -48 48 C-32.16 32.16 -16.32 16.32 0 0 Z " fill="#B6C6DE" transform="translate(224,176)"/>
<path d="M0 0 C27.72 0 55.44 0 84 0 C84 0.33 84 0.66 84 1 C56.28 1 28.56 1 0 1 C0 0.67 0 0.34 0 0 Z " fill="#000002" transform="translate(598,1260)"/>
<path d="M0 0 C0.33 0 0.66 0 1 0 C1 21.78 1 43.56 1 66 C0.67 66 0.34 66 0 66 C0 44.22 0 22.44 0 0 Z " fill="#000002" transform="translate(1260,607)"/>
<path d="M0 0 C1.46 0.01 1.46 0.01 2.96 0.03 C4.06 0.04 4.06 0.04 5.19 0.06 C5.19 0.72 5.19 1.38 5.19 2.06 C6.51 2.39 7.83 2.72 9.19 3.06 C-3.68 3.06 -16.55 3.06 -29.81 3.06 C-29.81 2.73 -29.81 2.4 -29.81 2.06 C-27.84 1.97 -27.84 1.97 -25.83 1.88 C-24.1 1.79 -22.36 1.71 -20.62 1.62 C-19.76 1.59 -18.9 1.55 -18.01 1.51 C-11.93 1.2 -6.07 -0.07 0 0 Z " fill="#B0C3DC" transform="translate(615.8125,1255.9375)"/>
<path d="M0 0 C2.64 0 5.28 0 8 0 C8 0.33 8 0.66 8 1 C5.36 1 2.72 1 0 1 C0 0.67 0 0.34 0 0 Z " fill="#000002" transform="translate(551,1255)"/>
<path d="M0 0 C2.31 0 4.62 0 7 0 C7 0.33 7 0.66 7 1 C4.69 1 2.38 1 0 1 C0 0.67 0 0.34 0 0 Z " fill="#000002" transform="translate(722,1255)"/>
<path d="M0 0 C2.31 0 4.62 0 7 0 C7 0.33 7 0.66 7 1 C4.69 1 2.38 1 0 1 C0 0.67 0 0.34 0 0 Z " fill="#E6EDFE" transform="translate(799,1238)"/>
<path d="M0 0 C0.66 0.33 1.32 0.66 2 1 C0.02 1.99 0.02 1.99 -2 3 C-1.34 2.01 -0.68 1.02 0 0 Z " fill="#D9E3F6" transform="translate(937,1183)"/>
<path d="M0 0 C0.66 0.33 1.32 0.66 2 1 C0.02 1.99 0.02 1.99 -2 3 C-1.34 2.01 -0.68 1.02 0 0 Z " fill="#E6EDFE" transform="translate(987,1153)"/>
<path d="M0 0 C1.65 0 3.3 0 5 0 C5 0.33 5 0.66 5 1 C3.35 1 1.7 1 0 1 C0 0.67 0 0.34 0 0 Z " fill="#000002" transform="translate(754,1250)"/>
<path d="M0 0 C1.65 0 3.3 0 5 0 C5 0.33 5 0.66 5 1 C3.35 1 1.7 1 0 1 C0 0.67 0 0.34 0 0 Z " fill="#000002" transform="translate(522,1250)"/>
<path d="M0 0 C4 1 4 1 4 1 Z " fill="#000002" transform="translate(798,1240)"/>
<path d="M0 0 C1 4 1 4 1 4 Z " fill="#000002" transform="translate(1255,721)"/>
<path d="M0 0 C3 1 3 1 3 1 Z " fill="#E6EDFE" transform="translate(717,1255)"/>
<path d="M0 0 C3 1 3 1 3 1 Z " fill="#E6EDFE" transform="translate(560,1255)"/>
<path d="M0 0 C3 1 3 1 3 1 Z " fill="#000002" transform="translate(779,1245)"/>
<path d="M0 0 C3 1 3 1 3 1 Z " fill="#000002" transform="translate(498,1245)"/>
<path d="M0 0 C3 1 3 1 3 1 Z " fill="#000002" transform="translate(478,1240)"/>
<path d="M0 0 C3 1 3 1 3 1 Z " fill="#000002" transform="translate(816,1235)"/>
<path d="M0 0 C3 1 3 1 3 1 Z " fill="#000002" transform="translate(461,1235)"/>
<path d="M0 0 C3 1 3 1 3 1 Z " fill="#000002" transform="translate(382,1205)"/>
<path d="M0 0 C3 1 3 1 3 1 Z " fill="#E6EDFE" transform="translate(979,1158)"/>
<path d="M0 0 C0.33 0.66 0.66 1.32 1 2 C0.34 1.67 -0.32 1.34 -1 1 C-0.67 0.67 -0.34 0.34 0 0 Z " fill="#E6EDFE" transform="translate(1037,1116)"/>
<path d="" fill="#000002" transform="translate(0,0)"/>
<path d="M0 0 C2 1 2 1 2 1 Z " fill="#E6EDFE" transform="translate(762,1248)"/>
<path d="M0 0 C2 1 2 1 2 1 Z " fill="#E6EDFE" transform="translate(503,1245)"/>
<path d="" fill="#E6EDFE" transform="translate(0,0)"/>
<path d="M0 0 C2 1 2 1 2 1 Z " fill="#E6EDFE" transform="translate(817,1233)"/>
<path d="M0 0 C2 1 2 1 2 1 Z " fill="#E6EDFE" transform="translate(830,1230)"/>
<path d="M0 0 C2 1 2 1 2 1 Z " fill="#E6EDFE" transform="translate(448,1230)"/>
<path d="M0 0 C2 1 2 1 2 1 Z " fill="#E6EDFE" transform="translate(845,1225)"/>
<path d="M0 0 C2 1 2 1 2 1 Z " fill="#000002" transform="translate(861,1220)"/>
<path d="" fill="#E6EDFE" transform="translate(0,0)"/>
<path d="M0 0 C2 1 2 1 2 1 Z " fill="#000002" transform="translate(873,1215)"/>
<path d="M0 0 C2 1 2 1 2 1 Z " fill="#000002" transform="translate(405,1215)"/>
<path d="M0 0 C2 1 2 1 2 1 Z " fill="#E6EDFE" transform="translate(887,1208)"/>
<path d="M0 0 C2 1 2 1 2 1 Z " fill="#E6EDFE" transform="translate(895,1205)"/>
<path d="M0 0 C2 1 2 1 2 1 Z " fill="#E6EDFE" transform="translate(899,1203)"/>
<path d="M0 0 C2 1 2 1 2 1 Z " fill="#E6EDFE" transform="translate(909,1198)"/>
<path d="M0 0 C2 1 2 1 2 1 Z " fill="#E6EDFE" transform="translate(929,1188)"/>
<path d="M0 0 C2 1 2 1 2 1 Z " fill="#E6EDFE" transform="translate(994,1148)"/>
<path d="M0 0 C2 1 2 1 2 1 Z " fill="#E6EDFE" transform="translate(1034,1118)"/>
<path d="" fill="#000002" transform="translate(0,0)"/>
<path d="" fill="#000002" transform="translate(0,0)"/>
<path d="" fill="#000002" transform="translate(0,0)"/>
<path d="" fill="#9BB3D0" transform="translate(0,0)"/>
<path d="" fill="#E6EDFE" transform="translate(0,0)"/>
<path d="" fill="#E6EDFE" transform="translate(0,0)"/>
<path d="" fill="#E6EDFE" transform="translate(0,0)"/>
<path d="" fill="#E6EDFE" transform="translate(0,0)"/>
<path d="" fill="#9BB3D0" transform="translate(0,0)"/>
<path d="" fill="#000002" transform="translate(0,0)"/>
<path d="" fill="#E6EDFE" transform="translate(0,0)"/>
<path d="" fill="#000002" transform="translate(0,0)"/>
<path d="" fill="#000002" transform="translate(0,0)"/>
<path d="" fill="#E6EDFE" transform="translate(0,0)"/>
<path d="" fill="#E6EDFE" transform="translate(0,0)"/>
<path d="" fill="#000002" transform="translate(0,0)"/>
<path d="" fill="#E6EDFE" transform="translate(0,0)"/>
<path d="" fill="#000002" transform="translate(0,0)"/>
<path d="" fill="#000002" transform="translate(0,0)"/>
<path d="" fill="#E6EDFE" transform="translate(0,0)"/>
<path d="" fill="#000002" transform="translate(0,0)"/>
<path d="" fill="#000002" transform="translate(0,0)"/>
<path d="" fill="#E6EDFE" transform="translate(0,0)"/>
<path d="" fill="#E6EDFE" transform="translate(0,0)"/>
<path d="" fill="#000002" transform="translate(0,0)"/>
<path d="" fill="#000002" transform="translate(0,0)"/>
<path d="" fill="#000002" transform="translate(0,0)"/>
<path d="" fill="#000002" transform="translate(0,0)"/>
<path d="" fill="#000002" transform="translate(0,0)"/>
<path d="" fill="#000002" transform="translate(0,0)"/>
<path d="" fill="#000002" transform="translate(0,0)"/>
<path d="" fill="#000002" transform="translate(0,0)"/>
<path d="" fill="#000002" transform="translate(0,0)"/>
<path d="" fill="#000002" transform="translate(0,0)"/>
<path d="" fill="#000002" transform="translate(0,0)"/>
<path d="" fill="#000002" transform="translate(0,0)"/>
<path d="" fill="#000002" transform="translate(0,0)"/>
<path d="" fill="#000002" transform="translate(0,0)"/>
<path d="" fill="#9BB3D0" transform="translate(0,0)"/>
<path d="" fill="#000002" transform="translate(0,0)"/>
<path d="" fill="#000002" transform="translate(0,0)"/>
<path d="" fill="#000002" transform="translate(0,0)"/>
<path d="" fill="#000002" transform="translate(0,0)"/>
<path d="" fill="#000002" transform="translate(0,0)"/>
<path d="" fill="#000002" transform="translate(0,0)"/>
<path d="" fill="#000002" transform="translate(0,0)"/>
<path d="" fill="#000002" transform="translate(0,0)"/>
<path d="" fill="#E6EDFE" transform="translate(0,0)"/>
<path d="" fill="#E6EDFE" transform="translate(0,0)"/>
<path d="" fill="#000002" transform="translate(0,0)"/>
<path d="" fill="#000002" transform="translate(0,0)"/>
<path d="" fill="#4D5167" transform="translate(0,0)"/>
<path d="" fill="#000002" transform="translate(0,0)"/>
<path d="" fill="#3E93FF" transform="translate(0,0)"/>
<path d="" fill="#4D5167" transform="translate(0,0)"/>
<path d="" fill="#000002" transform="translate(0,0)"/>
<path d="" fill="#000002" transform="translate(0,0)"/>
<path d="" fill="#000002" transform="translate(0,0)"/>
<path d="" fill="#000002" transform="translate(0,0)"/>
<path d="" fill="#000002" transform="translate(0,0)"/>
<path d="" fill="#E6EDFE" transform="translate(0,0)"/>
<path d="" fill="#E6EDFE" transform="translate(0,0)"/>
<path d="" fill="#000002" transform="translate(0,0)"/>
<path d="" fill="#000002" transform="translate(0,0)"/>
<path d="" fill="#000002" transform="translate(0,0)"/>
<path d="" fill="#E6EDFE" transform="translate(0,0)"/>
<path d="" fill="#E6EDFE" transform="translate(0,0)"/>
<path d="" fill="#4D5167" transform="translate(0,0)"/>
<path d="" fill="#4D5167" transform="translate(0,0)"/>
<path d="" fill="#000002" transform="translate(0,0)"/>
<path d="" fill="#000002" transform="translate(0,0)"/>
<path d="" fill="#9BB3D0" transform="translate(0,0)"/>
<path d="" fill="#000002" transform="translate(0,0)"/>
<path d="" fill="#000002" transform="translate(0,0)"/>
<path d="" fill="#000002" transform="translate(0,0)"/>
<path d="" fill="#000002" transform="translate(0,0)"/>
<path d="" fill="#000002" transform="translate(0,0)"/>
<path d="" fill="#E6EDFE" transform="translate(0,0)"/>
<path d="" fill="#E6EDFE" transform="translate(0,0)"/>
<path d="" fill="#E6EDFE" transform="translate(0,0)"/>
<path d="" fill="#9BB3D0" transform="translate(0,0)"/>
<path d="" fill="#E6EDFE" transform="translate(0,0)"/>
<path d="" fill="#E6EDFE" transform="translate(0,0)"/>
<path d="" fill="#E6EDFE" transform="translate(0,0)"/>
<path d="" fill="#4D5167" transform="translate(0,0)"/>
<path d="" fill="#E6EDFE" transform="translate(0,0)"/>
<path d="" fill="#4D5167" transform="translate(0,0)"/>
<path d="" fill="#E6EDFE" transform="translate(0,0)"/>
<path d="" fill="#4D5167" transform="translate(0,0)"/>
<path d="" fill="#9BB3D0" transform="translate(0,0)"/>
<path d="" fill="#9BB3D0" transform="translate(0,0)"/>
<path d="" fill="#4D5167" transform="translate(0,0)"/>
<path d="" fill="#E6EDFE" transform="translate(0,0)"/>
<path d="" fill="#9BB3D0" transform="translate(0,0)"/>
<path d="" fill="#4D5167" transform="translate(0,0)"/>
<path d="" fill="#E6EDFE" transform="translate(0,0)"/>
<path d="" fill="#9BB3D0" transform="translate(0,0)"/>
</svg>
