<?xml version="1.0" encoding="UTF-8"?>
<svg version="1.1" xmlns="http://www.w3.org/2000/svg" width="512" height="512">
<path d="M0 0 C0.82661133 0.66854004 0.82661133 0.66854004 1.66992188 1.35058594 C34.78745553 28.24704443 56.60872328 66.49667891 62 109 C62.11085938 109.79148438 62.22171875 110.58296875 62.3359375 111.3984375 C66.12934647 143.89872515 60.41712105 178.16334947 44.36401367 206.7746582 C43.19484543 208.86580577 43.19484543 208.86580577 42 212 C43.24241649 215.8312878 46.01891689 218.24950578 48.83172607 221.03186035 C49.32739492 221.52500465 49.82306376 222.01814895 50.33375287 222.52623701 C51.99484344 224.17657796 53.66295303 225.81963884 55.33105469 227.46289062 C56.52404173 228.64548964 57.71654493 229.8285769 58.90859985 231.01211548 C61.47711064 233.56074385 64.04849393 236.10642641 66.62197113 238.65003967 C70.69714981 242.6790474 74.76252746 246.71784625 78.82598877 250.75866699 C90.38262662 262.24848306 101.94726045 273.7301587 113.53320312 285.19042969 C119.93160531 291.51959265 126.319081 297.85957346 132.69478917 304.21159887 C136.06598538 307.56930102 139.44256352 310.92116086 142.8328476 314.25959778 C146.02723153 317.40513542 149.20715133 320.5646148 152.37696457 323.73490524 C153.5366546 324.88978846 154.70143756 326.03958595 155.87188339 327.18356705 C165.60958782 336.71035841 172.97135793 346.50132714 173.29296875 360.54882812 C173.40139949 374.50386433 170.57142331 384.37059553 161 395 C150.46747324 404.41464664 139.29407037 406.8880053 125.54296875 406.3828125 C109.94201045 405.36053664 100.38612819 394.68270633 89.984375 384.21142578 C88.79152194 383.01800773 87.59822664 381.82503157 86.40452576 380.63246155 C83.18366762 377.41217451 79.96899008 374.18578219 76.75542831 370.95821619 C73.38913707 367.57937686 70.0171373 364.20624411 66.64575195 360.83248901 C60.27066249 354.45119674 53.90068615 348.06482585 47.53255367 341.67659175 C40.27891758 334.40055928 33.01956517 327.13024143 25.75973892 319.86038613 C10.83347922 304.9132516 -4.0856261 289.95899369 -19 275 C-22.10459553 276.23172246 -25.1487717 277.5082276 -28.16015625 278.953125 C-68.22287793 297.8308904 -113.59494345 302.12332252 -156 288 C-180.35694727 279.18296123 -201.48140766 266.1018589 -220 248 C-220.69996094 247.36191406 -221.39992187 246.72382813 -222.12109375 246.06640625 C-233.35051669 235.58405511 -242.03201106 222.32649818 -249.07275391 208.77246094 C-249.90029265 207.19059382 -250.7660211 205.62884051 -251.63671875 204.0703125 C-268.69160135 172.4673017 -273.39937135 129.83000184 -265 95 C-264.80664062 94.18241211 -264.61328125 93.36482422 -264.4140625 92.52246094 C-258.25383935 67.28265774 -247.38021228 43.49823098 -230 24 C-229.26007813 23.15179688 -228.52015625 22.30359375 -227.7578125 21.4296875 C-225.53926519 18.91942809 -223.28092855 16.45360448 -221 14 C-220.3503125 13.28457031 -219.700625 12.56914063 -219.03125 11.83203125 C-207.62101032 -0.21454872 -193.72614611 -9.52129611 -179 -17 C-178.38447266 -17.31662598 -177.76894531 -17.63325195 -177.13476562 -17.95947266 C-121.22187043 -46.40612364 -48.81163657 -40.06730595 0 0 Z " fill="#DCDFE0" transform="translate(303,70)"/>
<path d="M0 0 C20.69837982 18.9548457 36.3829508 44.87993027 38.19628906 73.49560547 C38.29257891 76.99263213 38.31841412 80.48021448 38.30175781 83.97851562 C38.29611816 85.21843262 38.29047852 86.45834961 38.28466797 87.73583984 C38.16675239 96.6285423 37.5215765 104.66275582 34.98925781 113.22851562 C34.79589844 113.92025879 34.60253906 114.61200195 34.40332031 115.32470703 C29.93906613 131.0977162 22.85945401 144.88653271 11.98925781 157.22851562 C11.291875 158.05738281 10.59449219 158.88625 9.87597656 159.74023438 C-7.87348655 180.32708946 -34.62933682 194.65726098 -61.84326172 197.08349609 C-92.78502278 199.1537153 -122.42394328 192.06465193 -146.35742188 171.67822266 C-169.66524905 151.24085146 -184.61763372 124.00986631 -187.21142578 92.81494141 C-188.47621209 72.47861392 -184.46571641 52.28608755 -175.01074219 34.22851562 C-174.70797363 33.62894043 -174.40520508 33.02936523 -174.09326172 32.41162109 C-169.25375135 22.90425054 -163.1760934 15.07124125 -156.01074219 7.22851562 C-155.02654297 6.12056641 -155.02654297 6.12056641 -154.02246094 4.99023438 C-114.07468749 -37.69485974 -42.88818047 -37.78492442 0 0 Z " fill="#FBFCFE" transform="translate(275.0107421875,115.771484375)"/>
<path d="M0 0 C6.5808586 5.42545118 12.58242981 11.40562264 18.62329102 17.41455078 C19.78682388 18.56852926 20.95052478 19.72233834 22.11437988 20.87599182 C25.91477342 24.64519715 29.7097953 28.41978448 33.50390625 32.1953125 C34.15162074 32.83972967 34.79933523 33.48414683 35.46667743 34.14809179 C41.58444578 40.23509991 47.7001749 46.32415 53.81106663 52.41806221 C61.5996387 60.18473016 69.39809092 67.94117289 77.21040398 75.68396199 C82.7192315 81.14543646 88.21641487 86.6184623 93.70523971 92.10003841 C96.9765084 95.36637047 100.25256033 98.62752876 103.54126167 101.87631607 C106.63668179 104.93465383 109.71731702 108.00716621 112.7876358 111.09069633 C113.91027149 112.21327844 115.03796654 113.3308298 116.17130089 114.44260979 C125.7841898 123.88250531 132.97536912 133.67652983 133.29296875 147.54882812 C133.40139949 161.50386433 130.57142331 171.37059553 121 182 C110.46747324 191.41464664 99.29407037 193.8880053 85.54296875 193.3828125 C69.89819872 192.35766581 60.32203283 181.61820957 49.89257812 171.11962891 C48.68987297 169.91635877 47.48672559 168.71353051 46.28317261 167.5111084 C43.03545593 164.26396286 39.79391992 161.01071133 36.55349922 157.7562871 C33.15918036 154.34942092 29.75915372 150.94826059 26.35974121 147.54647827 C19.93152798 141.11206201 13.50842777 134.67256693 7.08717108 128.23120916 C-0.22692373 120.89471867 -7.54673423 113.5639422 -14.8670187 106.23362851 C-29.91769219 91.16207968 -44.96121147 76.08340737 -60 61 C-57.39511789 58.2974822 -54.66944474 56.4017765 -51.5 54.375 C-45.3099036 50.29296291 -39.6162579 45.8346553 -34 41 C-33.07058594 40.2059375 -32.14117187 39.411875 -31.18359375 38.59375 C-24.71096283 32.90431642 -19.23819724 26.83202594 -14 20 C-13.21367187 18.98292969 -12.42734375 17.96585937 -11.6171875 16.91796875 C-7.43882886 11.43645865 -3.52948227 5.92042188 0 0 Z " fill="#C2C2C3" transform="translate(343,283)"/>
</svg>
