<?xml version="1.0" encoding="UTF-8"?>
<svg version="1.1" xmlns="http://www.w3.org/2000/svg" width="512" height="512">
<path d="M0 0 C0.93487244 -0.00960754 1.86974487 -0.01921509 2.83294678 -0.02911377 C3.83714661 -0.03336365 4.84134644 -0.03761353 5.87597656 -0.04199219 C7.43714203 -0.0505423 7.43714203 -0.0505423 9.02984619 -0.05926514 C11.23212673 -0.06870672 13.43442135 -0.07524577 15.63671875 -0.07910156 C18.99016268 -0.0887908 22.34298933 -0.119816 25.69628906 -0.15136719 C27.8395146 -0.15789933 29.98274451 -0.16314897 32.12597656 -0.16699219 C33.12207947 -0.17933899 34.11818237 -0.19168579 35.14447021 -0.20440674 C42.04800296 -0.18254015 47.63563352 0.68050686 53.47363281 4.66894531 C54.0034375 5.20261719 54.53324219 5.73628906 55.07910156 6.28613281 C55.62179687 6.80433594 56.16449219 7.32253906 56.72363281 7.85644531 C62.03045951 15.78309784 62.25905976 25.72982238 63.2019043 34.94628906 C63.45502024 37.42011151 63.72183426 39.89215796 63.99121094 42.36425781 C64.16061896 43.947507 64.32926571 45.53083788 64.49707031 47.11425781 C64.57515427 47.84767395 64.65323822 48.58109009 64.73368835 49.33673096 C65.10266402 52.96003455 65.35432474 56.51861703 65.26660156 60.16113281 C66.20117188 60.36867187 67.13574219 60.57621094 68.09863281 60.79003906 C85.48759741 64.80494979 102.90832963 70.8349429 118.13183594 80.32373047 C121.48158922 82.46889558 121.48158922 82.46889558 125.30566406 83.21582031 C128.35184961 81.57743366 130.9736479 79.46478852 133.64160156 77.28613281 C134.88891066 76.28732657 136.13630917 75.28863197 137.38378906 74.29003906 C138.34236816 73.51684326 138.34236816 73.51684326 139.3203125 72.72802734 C142.45293533 70.20605377 145.6086221 67.7137256 148.76660156 65.22363281 C149.61037354 64.55195068 149.61037354 64.55195068 150.47119141 63.86669922 C157.09015435 58.63580595 161.88606212 55.03948012 170.45410156 54.84863281 C172.08412109 54.79255859 172.08412109 54.79255859 173.74707031 54.73535156 C181.79896136 55.70944271 187.16320565 60.45482043 192.68847656 66.05175781 C193.35574768 66.71520203 194.0230188 67.37864624 194.71051025 68.06219482 C196.11026415 69.4592423 197.50504207 70.86129163 198.89501953 72.26806641 C201.01073655 74.40520841 203.14695802 76.52015666 205.28613281 78.63378906 C206.65069832 80.00099807 208.01402235 81.36944752 209.37597656 82.73925781 C210.00832214 83.36350647 210.64066772 83.98775513 211.29217529 84.63092041 C216.98566507 90.44515838 220.84945362 96.2930755 220.76660156 104.66113281 C220.3656891 114.93156685 215.60613394 120.25570894 209.07128906 127.85644531 C206.05383263 131.3778789 203.18467892 135.00794829 200.32910156 138.66113281 C199.86882568 139.24846191 199.4085498 139.83579102 198.93432617 140.44091797 C197.70729307 142.01084861 196.48667953 143.58579088 195.26660156 145.16113281 C194.6465625 145.85207031 194.02652344 146.54300781 193.38769531 147.25488281 C192.03197181 149.1531297 192.03197181 149.1531297 192.42285156 151.66113281 C193.27515001 154.18646155 194.2693116 155.96510754 195.76660156 158.16113281 C205.21014314 173.38457694 212.47568062 192.45752979 215.26660156 210.16113281 C216.31267578 210.21720703 216.31267578 210.21720703 217.37988281 210.27441406 C225.96814269 210.80921413 234.52186546 211.63984782 243.07910156 212.53613281 C244.23514893 212.64997314 245.39119629 212.76381348 246.58227539 212.88110352 C263.78352927 214.7373183 263.78352927 214.7373183 269.14160156 220.34863281 C269.67527344 220.8784375 270.20894531 221.40824219 270.75878906 221.95410156 C275.35239128 228.67789755 275.7137163 235.2771965 275.66503906 243.16113281 C275.66790924 244.19625 275.67077942 245.23136719 275.67373657 246.29785156 C275.67576896 248.47624258 275.67029717 250.65465219 275.65771484 252.83300781 C275.64164997 256.15113464 275.65759231 259.46804349 275.67675781 262.78613281 C275.67477523 264.91113548 275.67093126 267.03613739 275.66503906 269.16113281 C275.67111176 270.1446875 275.67718445 271.12824219 275.68344116 272.14160156 C275.60873547 279.52465631 274.63954334 286.51553119 269.14160156 291.97363281 C268.62339844 292.51632812 268.10519531 293.05902344 267.57128906 293.61816406 C259.64463653 298.92499076 249.697912 299.15359101 240.48144531 300.09643555 C238.00762286 300.34955149 235.53557642 300.61636551 233.06347656 300.88574219 C231.48022737 301.05515021 229.8968965 301.22379696 228.31347656 301.39160156 C227.58006042 301.46968552 226.84664429 301.54776947 226.09100342 301.6282196 C222.46769982 301.99719527 218.90911734 302.24885599 215.26660156 302.16113281 C215.0590625 303.09570312 214.85152344 304.03027344 214.63769531 304.99316406 C210.21342878 324.16663716 203.24094891 343.69961178 192.26660156 360.16113281 C192.43331101 364.40296207 195.57678619 367.39529301 198.14160156 370.53613281 C199.1404078 371.78344191 200.1391024 373.03084042 201.13769531 374.27832031 C201.65315918 374.91737305 202.16862305 375.55642578 202.69970703 376.21484375 C205.2216806 379.34746658 207.71400877 382.50315335 210.20410156 385.66113281 C210.65188965 386.22364746 211.09967773 386.78616211 211.56103516 387.36572266 C216.79192842 393.9846856 220.38825426 398.78059337 220.57910156 407.34863281 C220.61648438 408.4353125 220.65386719 409.52199219 220.69238281 410.64160156 C219.71829167 418.69349261 214.97291395 424.0577369 209.37597656 429.58300781 C208.71253235 430.25027893 208.04908813 430.91755005 207.36553955 431.6050415 C205.96849207 433.0047954 204.56644275 434.39957332 203.15966797 435.78955078 C201.02252597 437.9052678 198.90757771 440.04148927 196.79394531 442.18066406 C195.4267363 443.54522957 194.05828685 444.9085536 192.68847656 446.27050781 C192.06422791 446.90285339 191.43997925 447.53519897 190.79681396 448.18670654 C184.98257599 453.88019632 179.13465888 457.74398487 170.76660156 457.66113281 C160.49616753 457.26022035 155.17202544 452.50066519 147.57128906 445.96582031 C144.04985547 442.94836388 140.41978609 440.07921017 136.76660156 437.22363281 C135.88560791 436.53321899 135.88560791 436.53321899 134.98681641 435.82885742 C133.41688577 434.60182432 131.84194349 433.38121078 130.26660156 432.16113281 C129.57566406 431.54109375 128.88472656 430.92105469 128.17285156 430.28222656 C126.27460468 428.92650306 126.27460468 428.92650306 123.76660156 429.31738281 C121.24127282 430.16968126 119.46262683 431.16384285 117.26660156 432.66113281 C102.15938628 441.99932235 82.93358222 449.69727497 65.26660156 452.16113281 C65.22921875 452.85851562 65.19183594 453.55589844 65.15332031 454.27441406 C64.61852025 462.86267394 63.78788655 471.41639671 62.89160156 479.97363281 C62.77776123 481.12968018 62.6639209 482.28572754 62.54663086 483.47680664 C60.69041608 500.67806052 60.69041608 500.67806052 55.07910156 506.03613281 C54.54929687 506.56980469 54.01949219 507.10347656 53.47363281 507.65332031 C46.74983682 512.24692253 40.15053787 512.60824755 32.26660156 512.55957031 C30.71392578 512.56387558 30.71392578 512.56387558 29.12988281 512.56826782 C26.9514918 512.57030021 24.77308219 512.56482842 22.59472656 512.55224609 C19.27659974 512.53618122 15.95969089 512.55212356 12.64160156 512.57128906 C10.5165989 512.56930648 8.39159698 512.56546251 6.26660156 512.55957031 C5.28304687 512.56564301 4.29949219 512.5717157 3.28613281 512.57797241 C-4.09692193 512.50326672 -11.08779681 511.53407459 -16.54589844 506.03613281 C-17.35994141 505.25882812 -17.35994141 505.25882812 -18.19042969 504.46582031 C-23.49725638 496.53916778 -23.72585663 486.59244325 -24.66870117 477.37597656 C-24.92181712 474.90215411 -25.18863114 472.43010767 -25.45800781 469.95800781 C-25.62741584 468.37475862 -25.79606258 466.79142775 -25.96386719 465.20800781 C-26.04195114 464.47459167 -26.1200351 463.74117554 -26.20048523 462.98553467 C-26.5694609 459.36223107 -26.82112162 455.80364859 -26.73339844 452.16113281 C-27.66796875 451.95359375 -28.60253906 451.74605469 -29.56542969 451.53222656 C-48.73890278 447.10796003 -68.27187741 440.13548016 -84.73339844 429.16113281 C-88.97522769 429.32784226 -91.96755863 432.47131744 -95.10839844 435.03613281 C-96.35570754 436.03493905 -97.60310604 437.03363365 -98.85058594 438.03222656 C-99.48963867 438.54769043 -100.12869141 439.0631543 -100.78710938 439.59423828 C-103.9197322 442.11621185 -107.07541897 444.60854002 -110.23339844 447.09863281 C-110.79591309 447.5464209 -111.35842773 447.99420898 -111.93798828 448.45556641 C-118.55695123 453.68645967 -123.352859 457.28278551 -131.92089844 457.47363281 C-133.00757813 457.51101563 -134.09425781 457.54839844 -135.21386719 457.58691406 C-143.26575823 456.61282292 -148.63000252 451.8674452 -154.15527344 446.27050781 C-155.15618011 445.27534149 -155.15618011 445.27534149 -156.17730713 444.2600708 C-157.57706103 442.86302332 -158.97183894 441.460974 -160.36181641 440.05419922 C-162.47753342 437.91705722 -164.6137549 435.80210896 -166.75292969 433.68847656 C-168.1174952 432.32126755 -169.48081922 430.9528181 -170.84277344 429.58300781 C-171.47511902 428.95875916 -172.1074646 428.3345105 -172.75897217 427.69134521 C-178.45246194 421.87710724 -182.31625049 416.02919013 -182.23339844 407.66113281 C-181.83248597 397.39069878 -177.07293081 392.06655669 -170.53808594 384.46582031 C-167.5206295 380.94438672 -164.6514758 377.31431734 -161.79589844 373.66113281 C-161.10548462 372.78013916 -161.10548462 372.78013916 -160.40112305 371.88134766 C-159.17408995 370.31141702 -157.9534764 368.73647474 -156.73339844 367.16113281 C-156.11335938 366.47019531 -155.49332031 365.77925781 -154.85449219 365.06738281 C-153.49876869 363.16913593 -153.49876869 363.16913593 -153.88964844 360.66113281 C-154.74194689 358.13580407 -155.73610848 356.35715808 -157.23339844 354.16113281 C-166.72728318 338.85653306 -173.78711994 319.91351134 -176.73339844 302.16113281 C-177.55839844 302.11069824 -178.38339844 302.06026367 -179.23339844 302.00830078 C-187.76068229 301.447984 -196.22709382 300.62045795 -204.70458984 299.54150391 C-206.75860489 299.28296002 -208.81416449 299.04044329 -210.87011719 298.79785156 C-212.19966714 298.63085814 -213.52909939 298.46292436 -214.85839844 298.29394531 C-216.03660156 298.14844238 -217.21480469 298.00293945 -218.42871094 297.85302734 C-223.88946553 296.70972219 -227.8537631 294.56933263 -231.48339844 290.34863281 C-232.34191406 289.37990234 -232.34191406 289.37990234 -233.21777344 288.39160156 C-237.25118921 282.45582733 -237.04051272 276.26253492 -237.03417969 269.35644531 C-237.03846481 268.31849823 -237.04274994 267.28055115 -237.04716492 266.21115112 C-237.05289424 264.02082039 -237.05341881 261.83047063 -237.04907227 259.64013672 C-237.04591568 256.30435416 -237.06937801 252.96946191 -237.09472656 249.63378906 C-237.09700016 247.49967559 -237.09770277 245.36555975 -237.09667969 243.23144531 C-237.10588943 242.24161652 -237.11509918 241.25178772 -237.12458801 240.23196411 C-237.07621254 232.92355294 -236.24737392 227.06187376 -231.29589844 221.34863281 C-230.45027344 220.62675781 -229.60464844 219.90488281 -228.73339844 219.16113281 C-228.15589844 218.65195313 -227.57839844 218.14277344 -226.98339844 217.61816406 C-215.13266415 209.94399065 -190.43733002 209.940228 -176.73339844 210.16113281 C-176.52585938 209.2265625 -176.31832031 208.29199219 -176.10449219 207.32910156 C-172.08958146 189.94013696 -166.05958835 172.51940474 -156.57080078 157.29589844 C-154.34817174 153.9904399 -154.34817174 153.9904399 -153.96972656 150.17895508 C-154.80483872 147.97236876 -155.8062807 146.44058917 -157.25292969 144.57910156 C-157.7752417 143.90137695 -158.29755371 143.22365234 -158.83569336 142.52539062 C-159.40006104 141.80706055 -159.96442871 141.08873047 -160.54589844 140.34863281 C-161.12251221 139.60323242 -161.69912598 138.85783203 -162.29321289 138.08984375 C-165.21952771 134.32100226 -168.18614788 130.58756673 -171.19433594 126.88378906 C-172.00874146 125.87892456 -172.00874146 125.87892456 -172.83959961 124.85375977 C-173.86991264 123.58801933 -174.9062622 122.32716136 -175.94946289 121.07202148 C-180.36030672 115.67273628 -182.02503554 111.80943512 -182.10839844 104.84863281 C-182.13675781 103.78 -182.16511719 102.71136719 -182.19433594 101.61035156 C-181.12438188 93.60383098 -176.42421192 88.24922828 -170.84277344 82.73925781 C-169.84760712 81.73835114 -169.84760712 81.73835114 -168.83233643 80.71722412 C-167.43528895 79.31747022 -166.03323962 77.92269231 -164.62646484 76.53271484 C-162.48932284 74.41699783 -160.37437459 72.28077635 -158.26074219 70.14160156 C-156.89353318 68.77703605 -155.52508373 67.41371203 -154.15527344 66.05175781 C-153.53102478 65.41941223 -152.90677612 64.78706665 -152.26361084 64.13555908 C-146.44937287 58.44206931 -140.60145575 54.57828076 -132.23339844 54.66113281 C-121.9629644 55.06204528 -116.63882231 59.82160044 -109.03808594 66.35644531 C-105.51665235 69.37390175 -101.88658296 72.24305545 -98.23339844 75.09863281 C-97.64606934 75.55890869 -97.05874023 76.01918457 -96.45361328 76.4934082 C-94.88368264 77.7204413 -93.30874037 78.94105485 -91.73339844 80.16113281 C-91.04246094 80.78117187 -90.35152344 81.40121094 -89.63964844 82.04003906 C-87.78656546 83.34990223 -87.78656546 83.34990223 -85.53808594 83.14160156 C-81.39843637 81.69445387 -77.6907299 79.58870914 -73.85839844 77.47363281 C-41.61402078 60.16113281 -41.61402078 60.16113281 -26.73339844 60.16113281 C-26.69601563 59.46375 -26.65863281 58.76636719 -26.62011719 58.04785156 C-26.08531712 49.45959169 -25.25468343 40.90586892 -24.35839844 32.34863281 C-24.24455811 31.19258545 -24.13071777 30.03653809 -24.01342773 28.84545898 C-22.10510858 11.161362 -22.10510858 11.161362 -14.73339844 5.16113281 C-9.66759401 1.43931731 -6.20939317 0.05172333 0 0 Z M-34.38183594 209.40332031 C-47.37656079 224.64298102 -53.10436627 243.3463634 -51.73339844 263.16113281 C-48.98422828 282.85635961 -39.89724593 300.13730395 -24.09472656 312.43652344 C-7.78494805 324.40959783 11.24503115 329.14180257 31.26660156 326.16113281 C45.14441583 323.33877438 56.70806388 317.54241194 67.26660156 308.16113281 C67.90339844 307.60683594 68.54019531 307.05253906 69.19628906 306.48144531 C81.17162986 295.35768431 88.76848921 278.23976731 89.58691406 262.03613281 C90.19258582 241.9948559 85.64472775 223.85194388 71.95410156 208.72363281 C57.75784603 193.79274931 40.03732024 185.74931724 19.48144531 185.10253906 C-1.63655039 185.0286827 -19.88329066 194.3524495 -34.38183594 209.40332031 Z " fill="#F1F0F0" transform="translate(236.7333984375,-0.1611328125)"/>
<path d="M0 0 C1.21198563 0.00456207 1.21198563 0.00456207 2.44845581 0.00921631 C14.94992105 0.07863376 26.6207508 0.98342944 38.6875 4.4375 C40.33177726 4.86685929 41.97631739 5.29521291 43.62109375 5.72265625 C86.48641824 17.31279803 121.9747432 45.73918103 144.0625 84.0625 C155.62228144 104.71729855 163.82115689 127.58586058 164.6875 151.4375 C164.72987793 152.60200684 164.77225586 153.76651367 164.81591797 154.96630859 C165.78087067 187.11404821 160.71654776 217.07148852 144.6875 245.4375 C144.33042969 246.08009766 143.97335937 246.72269531 143.60546875 247.38476562 C138.72476241 256.10277642 133.31512018 263.92235503 126.6875 271.4375 C125.95660156 272.27796875 125.22570312 273.1184375 124.47265625 273.984375 C122.24644122 276.50402787 119.97935038 278.9774763 117.6875 281.4375 C116.95273437 282.23800781 116.21796875 283.03851563 115.4609375 283.86328125 C89.21675035 311.38017981 49.85883904 328.97291894 11.92797852 330.59863281 C-22.15797535 330.96929628 -22.15797535 330.96929628 -35.3125 327.4375 C-36.52172119 327.13150879 -36.52172119 327.13150879 -37.75537109 326.81933594 C-68.80486828 318.90283768 -94.13423293 304.51204006 -117.3125 282.4375 C-118.38951172 281.43976563 -118.38951172 281.43976563 -119.48828125 280.421875 C-146.50849372 254.64708315 -164.53158966 213.47243627 -165.57662964 176.27656555 C-165.62646653 173.32973621 -165.63682136 170.3842185 -165.62817383 167.43701172 C-165.62502272 165.20359974 -165.64854514 162.97153009 -165.67382812 160.73828125 C-165.73595369 146.79745706 -163.55333229 133.4517948 -159.625 120.0625 C-159.37008789 119.18948242 -159.11517578 118.31646484 -158.85253906 117.41699219 C-150.7420128 90.56601457 -136.50627516 68.62607448 -117.3125 48.4375 C-116.69375 47.75429687 -116.075 47.07109375 -115.4375 46.3671875 C-96.91704897 26.6065277 -71.38040793 13.62706356 -45.6875 6.125 C-44.90213867 5.89458008 -44.11677734 5.66416016 -43.30761719 5.42675781 C-28.91062433 1.45255751 -14.88545223 -0.11973504 0 0 Z M-53.9609375 118.6796875 C-66.95566235 133.91934821 -72.68346783 152.62273059 -71.3125 172.4375 C-68.56332985 192.1327268 -59.4763475 209.41367114 -43.67382812 221.71289062 C-27.36404962 233.68596502 -8.33407041 238.41816976 11.6875 235.4375 C25.56531427 232.61514157 37.12896231 226.81877913 47.6875 217.4375 C48.32429688 216.88320313 48.96109375 216.32890625 49.6171875 215.7578125 C61.59252829 204.6340515 69.18938765 187.5161345 70.0078125 171.3125 C70.61348425 151.27122309 66.06562618 133.12831107 52.375 118 C38.17874446 103.06911649 20.45821868 95.02568443 -0.09765625 94.37890625 C-21.21565195 94.30504989 -39.46239223 103.62881669 -53.9609375 118.6796875 Z " fill="#E5E3E5" transform="translate(256.3125,90.5625)"/>
<path d="M0 0 C0.98613281 0.54398438 1.97226562 1.08796875 2.98828125 1.6484375 C28.57719252 16.8314384 45.34470523 43.43348513 52.71484375 71.74609375 C54.10729915 78.09853629 54.65572654 84.51484875 55 91 C55.06574219 92.02351563 55.13148438 93.04703125 55.19921875 94.1015625 C56.23452954 124.01847424 43.96207116 150.96563961 24.41015625 172.90625 C3.5068197 194.76113344 -23.61891013 205.06599112 -53.41015625 207.25 C-56.30388732 207.31368597 -59.11318372 207.21077146 -62 207 C-63.28777344 206.9071875 -64.57554687 206.814375 -65.90234375 206.71875 C-82.66261214 205.24861898 -97.36474468 200.19234131 -112 192 C-112.99773437 191.44441406 -113.99546875 190.88882813 -115.0234375 190.31640625 C-122.57230997 185.80654978 -128.70362196 180.06613075 -135 174 C-136.08087891 173.03126953 -136.08087891 173.03126953 -137.18359375 172.04296875 C-155.35960938 155.2566686 -166.28585333 127.0500564 -167.3359375 102.6328125 C-167.85946424 70.69192808 -158.37568459 42.08653905 -136.03588867 18.63305664 C-99.96801885 -18.13496868 -44.54014608 -24.88317731 0 0 Z M-109.6484375 49.2421875 C-122.64316235 64.48184821 -128.37096783 83.18523059 -127 103 C-124.25082985 122.6952268 -115.1638475 139.97617114 -99.36132812 152.27539062 C-83.05154962 164.24846502 -64.02157041 168.98066976 -44 166 C-30.12218573 163.17764157 -18.55853769 157.38127913 -8 148 C-7.36320312 147.44570313 -6.72640625 146.89140625 -6.0703125 146.3203125 C5.90502829 135.1965515 13.50188765 118.0786345 14.3203125 101.875 C14.92598425 81.83372309 10.37812618 63.69081107 -3.3125 48.5625 C-17.50875554 33.63161649 -35.22928132 25.58818443 -55.78515625 24.94140625 C-76.90315195 24.86754989 -95.14989223 34.19131669 -109.6484375 49.2421875 Z " fill="#F1EFEF" transform="translate(312,160)"/>
<path d="M0 0 C17.12109623 -0.44604058 33.34960249 -0.5362774 50 4 C50.81049805 4.20898926 51.62099609 4.41797852 52.45605469 4.63330078 C95.11179231 15.73377051 131.33417943 42.93277838 153.79931641 80.89111328 C166.16290377 102.34253121 175.09253092 126.01610491 176 151 C176.04237793 152.16450684 176.08475586 153.32901367 176.12841797 154.52880859 C177.09337067 186.67654821 172.02904776 216.63398852 156 245 C155.64292969 245.64259766 155.28585937 246.28519531 154.91796875 246.94726562 C150.03726241 255.66527642 144.62762018 263.48485503 138 271 C137.26910156 271.84046875 136.53820312 272.6809375 135.78515625 273.546875 C133.55894122 276.06652787 131.29185038 278.5399763 129 281 C128.26523437 281.80050781 127.53046875 282.60101563 126.7734375 283.42578125 C101.06203024 310.38406278 61.26522481 329.18688183 23.85180664 330.07470703 C20.23391523 330.0981658 16.61787206 330.08733228 13 330.0625 C11.74832031 330.05798828 10.49664062 330.05347656 9.20703125 330.04882812 C6.13797059 330.03711415 3.06901093 330.02071073 0 330 C0 329.67 0 329.34 0 329 C1.12792969 328.85304688 2.25585938 328.70609375 3.41796875 328.5546875 C47.63160257 322.40756615 87.8796437 301.51866213 115.14770508 265.65405273 C117.50291547 262.48437442 119.76925113 259.25819964 122 256 C122.39574219 255.42330566 122.79148437 254.84661133 123.19921875 254.25244141 C147.58454528 217.9969538 153.22254717 172.7806267 145.8125 130.4375 C142.35557281 114.77761982 136.71387139 100.02990057 129 86 C128.45859375 84.98035156 127.9171875 83.96070313 127.359375 82.91015625 C117.17143846 64.48779527 102.82589032 47.63677595 86 35 C84.99066406 34.21367188 83.98132813 33.42734375 82.94140625 32.6171875 C58.7724578 14.21191079 29.90037356 4.60131282 0 1 C0 0.67 0 0.34 0 0 Z " fill="#D3D1D3" transform="translate(245,91)"/>
</svg>
